<?xml version="1.0" encoding="utf-8"?>
<!-- Generator: Adobe Illustrator 16.0.4, SVG Export Plug-In . SVG Version: 6.00 Build 0)  -->
<!DOCTYPE svg PUBLIC "-//W3C//DTD SVG 1.1//EN" "http://www.w3.org/Graphics/SVG/1.1/DTD/svg11.dtd">
<svg version="1.1" id="Layer_1" xmlns="http://www.w3.org/2000/svg" xmlns:xlink="http://www.w3.org/1999/xlink" x="0px" y="0px"
	 width="304.451px" height="61.167px" viewBox="0 0 304.451 61.167" enable-background="new 0 0 304.451 61.167"
	 xml:space="preserve">
<path fill="#EE2E61" d="M53.526,27.842C53.464,14.436,42.508,3.58,29.104,3.642C15.696,3.703,4.84,14.66,4.902,28.065
	c0.032,6.901,2.956,13.123,7.61,17.531l-4.475,6.243l5.365,3.844l4.467-6.232c3.421,1.812,7.321,2.836,11.456,2.815
	c4.146-0.021,8.043-1.082,11.453-2.935l4.545,6.207l5.323-3.897l-4.551-6.218C50.699,40.975,53.559,34.735,53.526,27.842
	 M11.501,28.036c-0.045-9.768,7.865-17.751,17.632-17.796c9.769-0.045,17.749,7.865,17.794,17.633
	c0.022,4.696-1.799,8.976-4.775,12.164L29.187,22.329L16.403,40.167C13.389,37.007,11.522,32.738,11.501,28.036 M29.296,45.667
	c-2.688,0.012-5.241-0.582-7.532-1.649l7.479-10.44l7.589,10.363C34.547,45.035,31.994,45.656,29.296,45.667"/>
<path fill="#EE2E61" d="M299.135,44.332c0,3.232-2.618,5.854-5.854,5.854c-3.232,0-5.854-2.621-5.854-5.854
	c0-3.231,2.619-5.853,5.854-5.853S299.135,41.1,299.135,44.332"/>
<g>
	<polygon fill="#FFFFFF" points="64.582,50.272 75.655,8.949 90.757,8.949 79.684,50.272 	"/>
	<path fill="#FFFFFF" d="M85.388,50.272L96.461,8.949h14.566l7.049,21.622c0.088-0.961,0.256-2.024,0.502-3.191
		c0.248-1.167,0.623-2.69,1.127-4.572l3.713-13.859h14.312l-11.073,41.324h-14.679l-6.953-21.453
		c-0.098,0.923-0.25,1.916-0.46,2.979c-0.209,1.063-0.49,2.254-0.843,3.57l-3.994,14.904L85.388,50.272L85.388,50.272z"/>
	<path fill="#FFFFFF" d="M170.174,25.348c-1.007-1.299-2.13-2.268-3.368-2.908c-1.241-0.64-2.644-0.96-4.203-0.96
		c-2.43,0-4.581,0.748-6.459,2.244c-1.878,1.497-3.149,3.487-3.814,5.971c-0.651,2.428-0.465,4.366,0.561,5.814
		c1.021,1.449,2.72,2.174,5.091,2.174c1.431,0,2.965-0.305,4.605-0.918c1.643-0.611,3.517-1.584,5.624-2.922l-4.646,15.554
		c-1.794,0.659-3.545,1.151-5.251,1.481c-1.707,0.328-3.37,0.494-4.988,0.494c-2.014,0-3.892-0.226-5.633-0.678
		c-1.742-0.451-3.255-1.091-4.538-1.919c-3.086-2.108-5.134-4.771-6.146-7.989c-1.011-3.218-0.956-6.916,0.164-11.093
		c0.827-3.087,2.124-5.947,3.896-8.581c1.768-2.635,3.938-4.958,6.511-6.973c2.596-2.032,5.384-3.571,8.364-4.615
		c2.979-1.044,6.042-1.567,9.185-1.567c1.675,0,3.28,0.175,4.814,0.523s2.979,0.87,4.337,1.567L170.174,25.348z"/>
	<polygon fill="#FFFFFF" points="169.17,50.272 180.243,8.949 195.344,8.949 184.271,50.272 	"/>
	<path fill="#FFFFFF" d="M188.324,46.744l7.843-11.572c1.729,1.488,3.333,2.574,4.813,3.261c1.479,0.687,2.946,1.03,4.396,1.03
		c1.018,0,1.867-0.193,2.557-0.58c0.686-0.385,1.116-0.907,1.294-1.565c0.308-1.147-0.917-2.022-3.675-2.625
		c-0.884-0.208-1.574-0.366-2.07-0.479c-2.885-0.754-4.891-2.09-6.013-4.009c-1.121-1.919-1.302-4.308-0.533-7.169
		c1.188-4.441,3.748-8.054,7.675-10.84c3.927-2.784,8.469-4.178,13.625-4.178c2.371,0,4.62,0.311,6.75,0.933
		c2.13,0.62,4.19,1.562,6.188,2.822l-7.414,10.811c-1.146-1.054-2.365-1.859-3.656-2.413c-1.29-0.556-2.613-0.833-3.97-0.833
		c-1.033,0-1.882,0.174-2.538,0.522c-0.657,0.348-1.069,0.832-1.235,1.453c-0.312,1.168,1.473,2.193,5.355,3.077
		c0.617,0.151,1.097,0.264,1.436,0.339c2.669,0.641,4.559,1.948,5.666,3.924c1.106,1.976,1.286,4.365,0.535,7.17
		c-1.228,4.572-3.878,8.308-7.957,11.206c-4.079,2.896-8.765,4.348-14.053,4.348c-2.71,0-5.314-0.387-7.817-1.156
		C193.019,49.445,190.619,48.289,188.324,46.744"/>
	<polygon fill="#FFFFFF" points="225.57,50.272 236.644,8.949 251.745,8.949 240.672,50.272 	"/>
	<path fill="#FFFFFF" d="M258.568,50.272l-4.706-41.324h16.09l0.366,14.96c0.055,2.183,0.036,4.027-0.059,5.532
		c-0.093,1.506-0.27,2.917-0.525,4.233h0.282c0.561-1.391,1.222-2.859,1.982-4.402c0.761-1.542,1.656-3.218,2.688-5.024
		l8.729-15.299h15.779l-26.796,41.324H258.568z"/>
</g>
</svg>
