<?xml version="1.0" encoding="utf-8"?>
<!-- Generator: Adobe Illustrator 16.0.4, SVG Export Plug-In . SVG Version: 6.00 Build 0)  -->
<!DOCTYPE svg PUBLIC "-//W3C//DTD SVG 1.1//EN" "http://www.w3.org/Graphics/SVG/1.1/DTD/svg11.dtd">
<svg version="1.1" id="Layer_1" xmlns="http://www.w3.org/2000/svg" xmlns:xlink="http://www.w3.org/1999/xlink" x="0px" y="0px"
	 width="235.5px" height="42.5px" viewBox="0 0 235.5 42.5" enable-background="new 0 0 235.5 42.5" xml:space="preserve">
<path fill="#EE2E61" d="M19.194,33.831c-2.003,0.01-3.905-0.432-5.614-1.228l5.574-7.781l5.656,7.723
	C23.107,33.361,21.205,33.822,19.194,33.831 M5.934,20.691c-0.032-7.277,5.86-13.225,13.138-13.26
	c7.28-0.031,13.225,5.86,13.26,13.141c0.016,3.498-1.342,6.687-3.559,9.064l-9.662-13.195L9.587,29.734
	C7.34,27.379,5.95,24.197,5.934,20.691 M37.25,20.549c-0.045-9.991-8.211-18.08-18.199-18.032C9.06,2.562,0.972,10.725,1.018,20.716
	c0.022,5.142,2.202,9.779,5.67,13.064l-3.333,4.652l3.995,2.864l3.331-4.646c2.549,1.351,5.454,2.114,8.536,2.098
	c3.087-0.014,5.994-0.806,8.534-2.187l3.386,4.626l3.966-2.904l-3.391-4.634C35.144,30.335,37.273,25.686,37.25,20.549"/>
<path fill="#EE2E61" d="M220.263,32.836c0,2.408-1.953,4.361-4.36,4.361c-2.409,0-4.361-1.953-4.361-4.361
	c0-2.409,1.952-4.361,4.361-4.361C218.31,28.475,220.263,30.427,220.263,32.836"/>
<polygon fill="#2D607C" points="53.74,6.47 45.486,37.264 56.739,37.264 64.992,6.47 "/>
<path fill="#2D607C" d="M99.993,6.47H89.328L86.56,16.797c-0.374,1.401-0.655,2.538-0.837,3.407
	c-0.185,0.87-0.311,1.661-0.374,2.376L80.096,6.47H69.24l-8.25,30.792h10.686l2.974-11.104c0.263-0.983,0.475-1.868,0.629-2.664
	c0.156-0.789,0.271-1.531,0.344-2.217l5.18,15.984h10.939L99.993,6.47z"/>
<path fill="#2D607C" d="M120.404,5.732c-2.343,0-4.624,0.391-6.843,1.17c-2.22,0.776-4.297,1.922-6.231,3.438
	c-1.918,1.499-3.534,3.232-4.854,5.195c-1.317,1.964-2.283,4.093-2.901,6.393c-0.834,3.113-0.874,5.868-0.122,8.267
	c0.753,2.397,2.278,4.381,4.578,5.953c0.957,0.617,2.085,1.093,3.38,1.43c1.299,0.337,2.697,0.504,4.2,0.504
	c1.205,0,2.445-0.123,3.717-0.369c1.272-0.245,2.576-0.612,3.914-1.105l3.461-11.588c-1.57,0.996-2.966,1.722-4.19,2.177
	c-1.225,0.457-2.366,0.685-3.435,0.685c-1.765,0-3.031-0.541-3.791-1.623c-0.763-1.078-0.904-2.521-0.419-4.331
	c0.495-1.853,1.443-3.333,2.843-4.449c1.398-1.115,3.004-1.671,4.814-1.671c1.163,0,2.207,0.238,3.132,0.715
	c0.923,0.477,1.761,1.198,2.511,2.167l3.054-11.4c-1.011-0.52-2.086-0.91-3.231-1.168C122.847,5.863,121.651,5.732,120.404,5.732"/>
<polygon fill="#2D607C" points="142.924,6.47 131.672,6.47 123.42,37.262 134.675,37.262 "/>
<path fill="#2D607C" d="M159.98,5.775c-3.841,0-7.228,1.039-10.151,3.114c-2.926,2.074-4.833,4.769-5.72,8.078
	c-0.569,2.131-0.438,3.911,0.399,5.341c0.837,1.431,2.329,2.427,4.478,2.986c0.371,0.084,0.887,0.205,1.544,0.357
	c2.056,0.452,2.968,1.103,2.737,1.959c-0.13,0.49-0.453,0.879-0.965,1.166c-0.511,0.288-1.146,0.432-1.902,0.432
	c-1.082,0-2.173-0.258-3.278-0.769c-1.101-0.511-2.299-1.32-3.583-2.43l-5.845,8.624c1.709,1.15,3.497,2.014,5.362,2.589
	c1.865,0.574,3.807,0.861,5.825,0.861c3.943,0,7.432-1.079,10.471-3.238c3.039-2.159,5.016-4.944,5.929-8.351
	c0.561-2.091,0.427-3.872-0.397-5.344c-0.827-1.471-2.233-2.446-4.223-2.922c-0.252-0.056-0.609-0.141-1.068-0.255
	c-2.895-0.657-4.225-1.42-3.992-2.291c0.124-0.464,0.432-0.824,0.922-1.084c0.49-0.26,1.12-0.387,1.891-0.387
	c1.009,0,1.995,0.207,2.958,0.62c0.961,0.414,1.869,1.013,2.726,1.799l5.524-8.057c-1.489-0.941-3.026-1.641-4.612-2.104
	C163.425,6.005,161.747,5.775,159.98,5.775"/>
<polygon fill="#2D607C" points="184.951,6.47 173.699,6.47 165.446,37.262 176.701,37.262 "/>
<path fill="#2D607C" d="M220.309,6.47h-11.758l-6.505,11.401c-0.766,1.345-1.434,2.594-2,3.742c-0.569,1.15-1.062,2.245-1.481,3.281
	h-0.209c0.193-0.981,0.323-2.033,0.392-3.153c0.072-1.125,0.085-2.497,0.043-4.123L198.517,6.47h-11.988l3.509,30.792h10.305
	L220.309,6.47z"/>
<polygon fill="#0A5673" points="227.365,1.54 225.344,1.54 225.344,7.433 224.88,7.433 224.88,1.54 222.867,1.54 222.867,1.092 
	227.365,1.092 "/>
<polygon fill="#0A5673" points="234.421,7.433 233.966,7.433 233.966,1.762 231.65,7.342 231.238,7.342 228.92,1.808 228.92,7.433 
	228.465,7.433 228.465,1.092 229.119,1.092 231.461,6.725 233.759,1.092 234.421,1.092 "/>
</svg>
