<?xml version="1.0" encoding="utf-8"?>
<!-- Generator: Adobe Illustrator 16.0.4, SVG Export Plug-In . SVG Version: 6.00 Build 0)  -->
<!DOCTYPE svg PUBLIC "-//W3C//DTD SVG 1.1//EN" "http://www.w3.org/Graphics/SVG/1.1/DTD/svg11.dtd">
<svg version="1.1" id="Layer_1" xmlns="http://www.w3.org/2000/svg" xmlns:xlink="http://www.w3.org/1999/xlink" x="0px" y="0px"
	 width="662.75px" height="134.071px" viewBox="0 0 662.75 134.071" enable-background="new 0 0 662.75 134.071"
	 xml:space="preserve">
<g>
	<g>
		<path fill="#EC1C24" d="M142.049,19.405c0-5.115,4.146-9.263,9.265-9.263c5.117,0,9.264,4.148,9.264,9.263
			c0,3.013-1.445,5.681-3.672,7.373l-0.805-1.144c-0.179-0.42-0.664-0.762-1.084-0.762h-5.709c-0.422,0-0.618,0.341-0.44,0.762
			l2.118,3.02C146.02,28.479,142.049,24.413,142.049,19.405 M160.533,31.955c3.848-2.842,6.352-7.399,6.352-12.55
			c0-8.626-6.994-15.615-15.617-15.615c-8.625,0-15.617,6.989-15.617,15.615c0,8.625,6.992,15.617,15.617,15.617
			c1.327,0,2.606-0.181,3.834-0.497l1.717,2.447c0.177,0.422,0.662,0.762,1.084,0.762h5.711c0.422,0,0.615-0.34,0.437-0.762
			L160.533,31.955L160.533,31.955z"/>
		<path fill="#EC1C24" d="M182.331,34.87c-6.832,0-11.981-4.948-11.981-11.515V5.453c0-0.553,0.487-1.042,1.043-1.042h4.01
			c0.579,0,1.045,0.466,1.045,1.042v17.608c0,3.491,2.36,5.837,5.882,5.837c3.488,0,5.921-2.382,5.921-5.794V5.453
			c0-0.576,0.47-1.042,1.043-1.042h4.012c0.555,0,1.042,0.489,1.042,1.042v17.902C194.35,29.922,189.181,34.87,182.331,34.87"/>
		<path fill="#EC1C24" d="M216.154,34.446h-17.183c-0.577,0-1.047-0.466-1.047-1.038V5.453c0-0.576,0.47-1.042,1.047-1.042h17.183
			c0.575,0,1.042,0.466,1.042,1.042v3.464c0,0.574-0.466,1.043-1.042,1.043h-12.258v6.444h10.189c0.555,0,1.042,0.483,1.042,1.042
			v3.505c0,0.574-0.464,1.042-1.042,1.042h-10.189v6.907h12.258c0.575,0,1.042,0.47,1.042,1.043v3.466
			C217.196,33.98,216.729,34.446,216.154,34.446"/>
		<path fill="#EC1C24" d="M239.308,34.446h-17.182c-0.575,0-1.043-0.466-1.043-1.038V5.453c0-0.576,0.468-1.042,1.043-1.042h17.182
			c0.577,0,1.042,0.466,1.042,1.042v3.464c0,0.574-0.465,1.043-1.042,1.043h-12.256v6.444h10.189c0.555,0,1.042,0.483,1.042,1.042
			v3.505c0,0.574-0.464,1.042-1.042,1.042h-10.189v6.907h12.256c0.577,0,1.042,0.47,1.042,1.043v3.466
			C240.35,33.98,239.885,34.446,239.308,34.446"/>
		<path fill="#EC1C24" d="M268.854,34.87h-0.593c-0.36,0-0.633-0.111-0.888-0.366l-16.983-18.724v17.624
			c0,0.576-0.468,1.042-1.043,1.042h-3.841c-0.555,0-1.045-0.487-1.045-1.042V4.987c0-0.54,0.479-0.999,1.045-0.999h0.632
			c0.362,0,0.635,0.114,0.887,0.367l16.899,18.021V5.453c0-0.576,0.468-1.042,1.047-1.042h3.884c0.553,0,1.042,0.489,1.042,1.042
			v28.417C269.896,34.414,269.42,34.87,268.854,34.87"/>
		<path fill="#EC1C24" d="M275.389,13.146c-0.248,0-0.475-0.142-0.578-0.207l-1.115-0.792c-0.179-0.14-0.533-0.521-0.007-1.225
			c1.221-1.583,1.921-3.279,1.921-4.664c0-0.152-0.01-0.275-0.025-0.39c-0.355,0.169-0.76,0.261-1.167,0.261
			c-1.592,0-2.661-1.195-2.661-2.977c0-1.765,1.414-3.097,3.29-3.097c1.875,0,3.766,1.515,3.766,4.903
			c0,3.629-1.641,6.237-2.879,7.885C275.766,13.072,275.57,13.146,275.389,13.146"/>
		<path fill="#EC1C24" d="M289.583,34.87c-5.556,0-8.38-2.436-9.444-3.351c-0.497-0.398-0.706-0.782-0.265-1.57l1.525-2.616
			c0.174-0.312,0.461-0.521,0.801-0.589c0.347-0.065,0.728,0.017,0.989,0.222c1.788,1.353,3.612,2.568,6.225,2.568
			c2.022,0,3.605-1.323,3.605-3.009c0-1.92-1.56-3.367-5.214-4.846c-3.472-1.402-8.09-3.901-8.09-9.342
			c0-4.022,3.049-8.35,9.747-8.35c4.519,0,7.943,2.396,8.587,2.879c0.227,0.133,0.408,0.408,0.478,0.738
			c0.077,0.355,0.012,0.721-0.172,0.987l-1.604,2.399c-0.2,0.301-0.485,0.542-0.786,0.661c-0.363,0.142-0.726,0.114-1.023-0.089
			l-0.311-0.191c-1.703-1.076-3.308-2.088-5.424-2.088c-2.401,0-3.476,1.364-3.476,2.715c0,1.8,1.398,3.105,4.83,4.504
			c4.437,1.786,8.975,4.338,8.975,9.766C299.537,30.439,296.051,34.87,289.583,34.87"/>
		<path fill="#EC1C24" d="M188.899,75.053h-0.589c-0.361,0-0.635-0.109-0.888-0.365l-16.985-18.724v17.627
			c0,0.574-0.466,1.042-1.042,1.042h-3.843c-0.555,0-1.043-0.488-1.043-1.042V45.172c0-0.543,0.478-1.001,1.043-1.001h0.632
			c0.36,0,0.637,0.115,0.888,0.367l16.901,18.02V45.637c0-0.576,0.47-1.044,1.045-1.044h3.88c0.559,0,1.045,0.49,1.045,1.044v28.419
			C189.945,74.596,189.466,75.053,188.899,75.053"/>
		<path fill="#EC1C24" d="M200.684,74.637h-3.927c-0.555,0-1.045-0.485-1.045-1.046V45.64c0-0.557,0.49-1.043,1.045-1.043h3.927
			c0.557,0,1.042,0.487,1.042,1.043v27.951C201.726,74.151,201.241,74.637,200.684,74.637"/>
		<path fill="#EC1C24" d="M219.858,75.06h-0.42c-0.289,0-0.687-0.105-0.934-0.601l-0.002-0.007l-13.05-28.418
			c-0.156-0.338-0.14-0.695,0.044-0.982c0.183-0.289,0.511-0.456,0.894-0.456h4.307c0.48,0,0.82,0.312,0.943,0.617l8.03,17.892
			l8.034-17.902c0.12-0.297,0.458-0.606,0.938-0.606h4.306c0.386,0,0.712,0.167,0.895,0.456c0.185,0.287,0.2,0.644,0.042,0.982
			l-13.089,28.418C220.547,74.954,220.147,75.06,219.858,75.06"/>
		<path fill="#EC1C24" d="M255.62,74.698h-17.185c-0.574,0-1.045-0.472-1.045-1.042V45.701c0-0.575,0.471-1.042,1.045-1.042h17.185
			c0.576,0,1.042,0.466,1.042,1.042v3.46c0,0.577-0.466,1.047-1.042,1.047h-12.259v6.44h10.189c0.555,0,1.04,0.488,1.04,1.047v3.503
			c0,0.577-0.465,1.043-1.04,1.043h-10.189v6.908h12.259c0.576,0,1.042,0.469,1.042,1.046v3.46
			C256.662,74.227,256.196,74.698,255.62,74.698"/>
		<path fill="#EC1C24" d="M267.724,58.128h6.644c2.133,0,3.937-1.861,3.937-4.066c0-2.091-1.804-3.853-3.937-3.853h-6.644V58.128
			L267.724,58.128z M282.853,74.698h-4.434c-0.587,0-0.83-0.394-0.891-0.513l-5.551-11.057h-4.293v10.527
			c0,0.557-0.49,1.042-1.045,1.042h-3.884c-0.574,0-1.042-0.465-1.042-1.042V45.701c0-0.575,0.468-1.042,1.042-1.042h12.071
			c5.212,0,9.45,4.183,9.45,9.316c0,3.73-2.352,7.028-6.152,8.65l5.657,10.494c0.191,0.349,0.191,0.765,0,1.086
			C283.594,74.517,283.257,74.698,282.853,74.698"/>
		<path fill="#EC1C24" d="M297.621,75.121c-5.554,0-8.379-2.438-9.445-3.354c-0.497-0.396-0.706-0.782-0.265-1.571l1.523-2.617
			c0.176-0.308,0.466-0.519,0.803-0.587c0.348-0.065,0.722,0.017,0.989,0.225c1.787,1.35,3.612,2.565,6.227,2.565
			c2.019,0,3.599-1.321,3.599-3.009c0-1.917-1.556-3.368-5.209-4.847c-3.47-1.4-8.086-3.897-8.086-9.342
			c0-4.017,3.05-8.348,9.74-8.348c4.524,0,7.949,2.396,8.589,2.876c0.229,0.138,0.41,0.411,0.478,0.739
			c0.077,0.358,0.012,0.723-0.172,0.989l-1.599,2.4c-0.202,0.299-0.489,0.541-0.791,0.661c-0.357,0.145-0.725,0.111-1.027-0.087
			l-0.306-0.197c-1.699-1.072-3.306-2.085-5.426-2.085c-2.4,0-3.476,1.364-3.476,2.715c0,1.804,1.402,3.107,4.833,4.505
			c4.437,1.783,8.975,4.336,8.975,9.765C307.576,70.688,304.088,75.121,297.621,75.121"/>
		<path fill="#EC1C24" d="M317.633,74.698h-3.93c-0.553,0-1.042-0.485-1.042-1.042V45.701c0-0.557,0.489-1.042,1.042-1.042h3.93
			c0.555,0,1.042,0.485,1.042,1.042v27.955C318.675,74.213,318.188,74.698,317.633,74.698"/>
		<g>
			<defs>
				<rect id="SVGID_1_" y="0.056" width="370.443" height="133.578"/>
			</defs>
			<clipPath id="SVGID_2_">
				<use xlink:href="#SVGID_1_"  overflow="visible"/>
			</clipPath>
			<path clip-path="url(#SVGID_2_)" fill="#EC1C24" d="M334.11,74.637h-3.927c-0.555,0-1.042-0.485-1.042-1.046V50.147h-6.222
				c-0.572,0-1.042-0.47-1.042-1.045V45.64c0-0.577,0.47-1.043,1.042-1.043h18.45c0.579,0,1.049,0.466,1.049,1.043v3.462
				c0,0.576-0.47,1.045-1.049,1.045h-6.218v23.444C335.151,74.151,334.667,74.637,334.11,74.637"/>
			<path clip-path="url(#SVGID_2_)" fill="#EC1C24" d="M359.513,74.637h-3.881c-0.581,0-1.052-0.472-1.052-1.046V60.239L345,46.195
				c-0.219-0.348-0.229-0.75-0.047-1.08c0.18-0.326,0.524-0.519,0.921-0.519h4.308c0.338,0,0.635,0.163,0.867,0.48l6.565,9.431
				l6.559-9.428c0.238-0.321,0.529-0.483,0.874-0.483h4.345c0.396,0,0.745,0.193,0.922,0.519c0.188,0.33,0.168,0.731-0.041,1.075
				l-9.714,14.008v13.393C360.558,74.151,360.066,74.637,359.513,74.637"/>
		</g>
		<path fill="#EC1C24" d="M147.57,75.121c-6.806,0-11.938-4.932-11.938-11.477V45.713c0-0.524,0.458-0.986,0.983-0.986h4.017
			c0.545,0,0.985,0.442,0.985,0.986v17.637c0,3.535,2.393,5.909,5.952,5.909c3.529,0,5.993-2.411,5.993-5.868V45.713
			c0-0.543,0.446-0.986,0.985-0.986h4.021c0.522,0,0.983,0.461,0.983,0.986v17.931C159.553,70.189,154.402,75.121,147.57,75.121"/>
		<path fill="#EC1C24" d="M139.653,106.926V98.41h6.206c2.309,0,4.137,1.752,4.137,4.181c0,2.463-1.431,4.335-4.137,4.335H139.653
			L139.653,106.926z M139.694,94.83v-8.354h5.21c2.545,0,4.256,1.472,4.256,4.099c0,2.508-1.711,4.256-4.256,4.256H139.694
			L139.694,94.83z M149.719,96.381c2.19-1.072,3.86-3.299,3.86-6.285c0-4.177-3.46-7.357-8.276-7.357h-8.912
			c-0.441,0-0.758,0.355-0.758,0.752v26.343c0,0.396,0.317,0.758,0.758,0.758h9.351c5.011,0,8.672-3.225,8.672-7.682
			c0-3.542-2.307-5.53-4.695-6.446V96.381L149.719,96.381z"/>
		<path fill="#EC1C24" d="M157.544,109.829c0,0.399,0.319,0.755,0.758,0.755h15.914c0.437,0,0.753-0.355,0.753-0.755v-2.189
			c0-0.393-0.316-0.755-0.753-0.755h-12.572v-8.553h10.622c0.399,0,0.755-0.318,0.755-0.755v-2.23c0-0.4-0.355-0.755-0.755-0.755
			h-10.622v-8.116h12.572c0.437,0,0.753-0.358,0.753-0.759V83.49c0-0.396-0.316-0.752-0.753-0.752h-15.914
			c-0.439,0-0.758,0.355-0.758,0.752V109.829L157.544,109.829z"/>
		<path fill="#EC1C24" d="M179.258,109.829c0,0.399,0.319,0.755,0.755,0.755h14.167c0.438,0,0.755-0.355,0.755-0.755v-2.189
			c0-0.393-0.317-0.755-0.755-0.755h-10.783V83.49c0-0.396-0.357-0.752-0.755-0.752h-2.629c-0.436,0-0.755,0.355-0.755,0.752
			V109.829L179.258,109.829z"/>
		<path fill="#EC1C24" d="M197.991,109.829c0,0.399,0.319,0.755,0.751,0.755h2.591c0.395,0,0.753-0.355,0.753-0.755V99.367h10.625
			c0.398,0,0.755-0.355,0.755-0.759v-2.187c0-0.396-0.357-0.755-0.755-0.755h-10.625v-9.191h12.573c0.436,0,0.755-0.358,0.755-0.759
			V83.49c0-0.396-0.319-0.752-0.755-0.752h-15.917c-0.432,0-0.751,0.355-0.751,0.752V109.829L197.991,109.829z"/>
		<path fill="#EC1C24" d="M222.046,101.119l4.857-10.9h0.198l4.893,10.9H222.046L222.046,101.119z M214.651,110.584h2.504
			c0.479,0,0.798-0.314,0.916-0.594l2.427-5.452h13.009l2.47,5.452c0.157,0.358,0.437,0.594,0.912,0.594h2.507
			c0.596,0,0.917-0.512,0.678-1.031l-12.135-26.776c-0.12-0.239-0.478-0.44-0.676-0.44h-0.399c-0.198,0-0.557,0.201-0.677,0.44
			l-12.215,26.776C213.73,110.072,214.052,110.584,214.651,110.584"/>
		<path fill="#EC1C24" d="M243.009,107.841c0.633,0.595,3.699,3.146,8.553,3.146c5.172,0,8.873-3.389,8.873-7.521
			c0-4.857-3.94-7.044-8.555-8.912c-3.301-1.349-5.054-2.746-5.054-5.011c0-1.476,1.155-3.583,4.5-3.583
			c2.306,0,3.812,0.99,5.366,1.987c0.558,0.359,1.076,0.12,1.395-0.399l0.992-1.51c0.401-0.601,0.082-1.151-0.237-1.353
			c-0.398-0.28-3.381-2.35-7.363-2.35c-6.322,0-8.708,4.263-8.708,7.364c0,4.611,3.18,6.722,7.238,8.434
			c3.938,1.629,6.01,3.143,6.01,5.53c0,2.028-1.75,3.702-4.499,3.702c-3.065,0-4.493-1.195-6.363-2.746
			c-0.438-0.358-1.037-0.198-1.354,0.317l-1.032,1.63C242.329,107.247,242.65,107.523,243.009,107.841"/>
		<path fill="#EC1C24" d="M269.177,109.829c0,0.399,0.36,0.755,0.755,0.755h2.625c0.398,0,0.758-0.355,0.758-0.755V86.476h6.488
			c0.436,0,0.753-0.358,0.753-0.759V83.49c0-0.396-0.318-0.752-0.753-0.752h-17.111c-0.437,0-0.756,0.355-0.756,0.752v2.227
			c0,0.4,0.319,0.759,0.756,0.759h6.485V109.829L269.177,109.829z"/>
		<path fill="#EC1C24" d="M0,0.436v74.338c0,32.511,26.353,58.86,58.863,58.86c32.508,0,58.862-26.35,58.862-58.86V0.436H0L0,0.436z
			"/>
		<path fill="#FFFFFF" d="M111.261,6.9h-10.403L58.863,48.895l0,0l0,0L16.867,6.9H6.464v11.88l41.258,41.254l-36.51,36.511
			c2.27,4.974,5.264,9.448,8.867,13.414L58.863,71.18l0,0l0,0l38.782,38.779c3.604-3.966,6.598-8.44,8.866-13.414L70.005,60.034
			l41.256-41.254V6.9L111.261,6.9z"/>
		<path fill="#EC1C24" d="M68.616,57.517c-1.569-1.148-3.011,1.407-3.011,1.407c-0.985-1.337-1.935,0.114-1.935,0.114
			c1.332,0.917,1.212,3.073-1.307,2.531c-2.521-0.546-2.794-2.724-2.794-2.724l1.891,0.693l-0.002-3.143l-1.804,0.675l0.603-2.207
			h-1.414h-1.417l0.604,2.207l-1.807-0.675l-0.001,3.143l1.893-0.693c0,0-0.273,2.178-2.796,2.724
			c-2.523,0.542-2.637-1.614-1.307-2.531c0,0-0.95-1.452-1.934-0.114c0,0-1.441-2.555-3.013-1.407c0,0,2.217,2.732,2.488,10.028
			c0,0,2.091-1.346,7.29-1.291c5.197-0.055,7.282,1.291,7.282,1.291C66.399,60.249,68.616,57.517,68.616,57.517"/>
		<path fill="#EC1C24" d="M50.432,56.226c0.161,0.034,0.318,0.089,0.465,0.15c1.405-2.989,4.442-5.059,7.966-5.059
			c3.521,0,6.558,2.07,7.964,5.059c0.15-0.061,0.302-0.116,0.464-0.15c0.494-0.106,0.977-0.055,1.433,0.143
			c-1.324-3.489-4.446-6.094-8.236-6.678l-1.625,1.626l0,0l0,0l-1.626-1.626c-3.788,0.584-6.914,3.189-8.237,6.678
			C49.456,56.171,49.94,56.12,50.432,56.226L50.432,56.226z"/>
		<path fill="#EC1C24" d="M58.844,68.413L58.844,68.413l1.974,1.974c2.661-0.184,4.589-0.751,4.589-1.414
			c0-0.819-2.939-1.489-6.563-1.489c-3.627,0-6.569,0.67-6.569,1.489c0,0.663,1.932,1.23,4.591,1.414L58.844,68.413L58.844,68.413
			L58.844,68.413z"/>
		<path fill="#FFFFFF" d="M67.584,12.5c-0.304,0.024-1.521,0.062-2.879-0.796c-1.358-0.851-2.804-0.521-3.173-0.415v1.293
			c0.369-0.103,1.815-0.436,3.173,0.415c1.358,0.854,2.576,0.82,2.879,0.792V12.5L67.584,12.5z M67.584,17.337
			c-0.304,0.021-1.521,0.06-2.879-0.794c-1.358-0.851-2.804-0.521-3.173-0.415v1.293c0.369-0.106,1.815-0.436,3.173,0.417
			c1.358,0.854,2.576,0.816,2.879,0.792V17.337L67.584,17.337z M67.584,22.173c-0.304,0.027-1.521,0.063-2.879-0.794
			c-1.358-0.851-2.804-0.518-3.173-0.415v1.296c0.369-0.108,1.815-0.436,3.173,0.415c1.358,0.857,2.576,0.818,2.879,0.794V22.173
			L67.584,22.173z M56.191,11.289c-0.371-0.106-1.815-0.436-3.168,0.415c-1.359,0.857-2.58,0.82-2.883,0.796v1.29
			c0.303,0.027,1.523,0.062,2.883-0.792c1.353-0.851,2.798-0.518,3.168-0.415V11.289L56.191,11.289z M56.191,16.127
			c-0.371-0.106-1.815-0.436-3.168,0.415c-1.359,0.854-2.58,0.815-2.883,0.794v1.292c0.303,0.024,1.523,0.062,2.883-0.792
			c1.353-0.852,2.798-0.522,3.168-0.417V16.127L56.191,16.127z M56.191,20.964c-0.371-0.103-1.815-0.436-3.168,0.415
			c-1.359,0.857-2.58,0.821-2.883,0.794v1.296c0.303,0.024,1.523,0.063,2.883-0.794c1.353-0.851,2.798-0.523,3.168-0.415V20.964
			L56.191,20.964z M64.745,8.273C66.823,9.9,69.817,9.12,69.817,9.12v17.998c0,0-2.994,0.777-5.072-0.851
			c-2.07-1.621-5.833-0.271-5.88,1.664v0.036c0-0.005-0.001-0.01-0.001-0.017c0,0.007-0.002,0.012-0.002,0.017v-0.036
			c-0.048-1.935-3.811-3.284-5.879-1.664c-2.082,1.628-5.074,0.851-5.074,0.851V9.12c0,0,2.992,0.78,5.074-0.847
			c2.074-1.631,5.858-0.267,5.881,1.681C58.886,8.006,62.669,6.642,64.745,8.273 M71.663,9.12c1.006,0,1.821,0.813,1.822,1.817
			v19.79H60.909c-0.289,0.861-1.088,1.482-2.044,1.487h-0.001h-0.002c-0.957-0.005-1.757-0.626-2.043-1.487h-12.58v-19.79
			c0.002-1.004,0.818-1.817,1.824-1.817v19.796h10.824c0,0,1.629-0.038,1.977,1.807c0.347-1.845,1.978-1.807,1.978-1.807h10.823
			V9.12"/>
		<path fill="#FFFFFF" d="M55.872,115.441h0.483c0.611,0,1.055,0.451,1.055,1.072c0,0.622-0.444,1.072-1.055,1.072h-0.483V115.441
			L55.872,115.441z M56.417,118.43c1.059,0,1.92-0.857,1.92-1.916c0-1.056-0.861-1.912-1.92-1.912h-1.224
			c-0.109,0-0.2,0.095-0.2,0.204v3.423c0,0.109,0.088,0.201,0.2,0.201H56.417 M55.544,119.67c0,0.358,0.287,0.646,0.646,0.646
			c0.356,0,0.646-0.287,0.646-0.646c0-0.355-0.289-0.642-0.646-0.642C55.831,119.028,55.544,119.314,55.544,119.67 M74.866,119.711
			c0.207,0.246,0.732,0.677,1.604,0.677c1.124,0,1.969-0.848,1.969-1.865c0-1.062-0.707-1.804-1.862-1.804h-0.702v-1.083h1.806
			c0.092,0,0.155-0.071,0.155-0.153v-0.554c0-0.082-0.063-0.157-0.155-0.157h-2.569c-0.09,0-0.154,0.075-0.154,0.157v2.398
			c0,0.133,0.089,0.286,0.251,0.286h1.254c0.642,0,0.983,0.41,0.983,0.909c0,0.513-0.391,0.963-0.944,0.963
			c-0.545,0-1.015-0.423-1.048-0.457c-0.063-0.055-0.14-0.041-0.197,0.007l-0.406,0.399
			C74.751,119.533,74.761,119.588,74.866,119.711 M71.716,118.28v-1.951l-1.626,1.951H71.716L71.716,118.28z M69.171,119.127
			c-0.091,0-0.155-0.078-0.155-0.153v-0.677l2.927-3.566c0.025-0.021,0.066-0.044,0.123-0.044h0.441
			c0.081,0,0.155,0.064,0.155,0.153v3.464h0.649c0.089,0,0.156,0.068,0.156,0.15v0.499c0,0.082-0.067,0.156-0.156,0.156h-0.649
			l0.007,1.042c0,0.079-0.073,0.157-0.152,0.157h-0.678c-0.082,0-0.156-0.078-0.156-0.157v-1.024H69.171 M64.859,118.81
			c0,0.447,0.408,0.748,0.847,0.748c0.447,0,0.844-0.301,0.844-0.748c0-0.369-0.299-0.741-0.844-0.861
			C65.16,118.068,64.859,118.44,64.859,118.81 M65.706,116.995c0.504-0.112,0.74-0.423,0.74-0.771c0-0.393-0.333-0.693-0.759-0.693
			c-0.389,0-0.722,0.301-0.722,0.693C64.965,116.589,65.192,116.873,65.706,116.995 M63.778,118.826c0-0.71,0.758-1.246,0.984-1.362
			v-0.021c-0.333-0.178-0.839-0.629-0.839-1.264c0-0.902,0.782-1.486,1.764-1.486c1.018,0,1.8,0.584,1.8,1.486
			c0,0.621-0.505,1.059-0.84,1.253v0.031c0.369,0.19,0.987,0.662,0.987,1.362c0,0.885-0.75,1.558-1.947,1.558
			C64.526,120.384,63.778,119.711,63.778,118.826 M60.893,120.151c0,0.079,0.065,0.154,0.152,0.154h0.702
			c0.082,0,0.145-0.075,0.145-0.154v-5.223c0-0.082-0.063-0.157-0.145-0.157h-0.569l-1.173,0.987
			c-0.033,0.031-0.046,0.082-0.041,0.147l0.049,0.399c0.008,0.071,0.09,0.119,0.164,0.105l0.715-0.157V120.151L60.893,120.151z
			 M51.3,120.151c0,0.079,0.074,0.154,0.152,0.154h0.76c0.079,0,0.154-0.075,0.154-0.154v-4.563h1.245
			c0.089,0,0.155-0.075,0.155-0.156v-0.667c0-0.078-0.066-0.149-0.155-0.149h-3.556c-0.089,0-0.154,0.071-0.154,0.149v0.667
			c0,0.081,0.065,0.156,0.154,0.156H51.3V120.151L51.3,120.151z M44.831,119.752c0.162,0.157,0.763,0.632,1.79,0.632
			c1.147,0,1.87-0.771,1.87-1.608c0-1.049-0.911-1.521-1.7-1.838c-0.659-0.267-0.961-0.526-0.961-0.908
			c0-0.26,0.253-0.571,0.717-0.571c0.446,0,1.066,0.407,1.129,0.448c0.099,0.062,0.222,0,0.287-0.096l0.309-0.465
			c0.058-0.082,0.031-0.222-0.05-0.273c-0.162-0.123-0.796-0.539-1.626-0.539c-1.294,0-1.831,0.833-1.831,1.557
			c0,0.96,0.765,1.452,1.53,1.76c0.683,0.276,1.033,0.563,1.033,0.977c0,0.349-0.318,0.625-0.741,0.625
			c-0.529,0-1.187-0.478-1.226-0.505c-0.075-0.055-0.214-0.055-0.28,0.058l-0.292,0.502
			C44.716,119.64,44.759,119.681,44.831,119.752 M39.287,114.765c0-0.078,0.066-0.149,0.154-0.149h3.312
			c0.089,0,0.154,0.071,0.154,0.149v0.667c0,0.081-0.065,0.156-0.154,0.156h-2.406v1.336h2.006c0.082,0,0.157,0.068,0.157,0.153
			v0.673c0,0.089-0.075,0.157-0.157,0.157h-2.006v1.421h2.406c0.089,0,0.154,0.075,0.154,0.157v0.666
			c0,0.079-0.065,0.154-0.154,0.154H39.44c-0.087,0-0.154-0.075-0.154-0.154V114.765L39.287,114.765z"/>
		<path fill="#FFFFFF" d="M14.869,63.166c4.902-8.201,9.435-5.768,9.435-5.768C19.019,57.042,15.345,62.425,14.869,63.166
			L14.869,63.166z M29.699,51.845c0-0.943-0.764-1.705-1.705-1.705s-1.705,0.762-1.705,1.705l0.002,8.06c0,0-4.71-0.547-7.349,5.11
			c0,0,1.921-6.065,6.389-6.198c0,0,0.012-15.048,0.012-15.065c0-0.849-0.69-1.537-1.537-1.537c-0.849,0-1.533,0.688-1.533,1.537
			v10.987c0,0,1.021,0.195,1.264,0.268c0,0-0.864-0.073-1.264-0.087c-0.306-0.014-0.608-0.021-0.907-0.014V41.901
			c0-0.846-0.685-1.534-1.534-1.534c-0.845,0-1.534,0.688-1.534,1.534v13.228c-0.304,0.032-0.591,0.063-0.875,0.096V44.646
			c0-0.772-0.625-1.397-1.397-1.397s-1.383,0.625-1.383,1.397v11.035c-1.218,0.212-2.074,0.399-2.207,0.444
			c0.44-0.198,0.875-0.375,1.307-0.529v-6.553c0-0.639-0.516-1.154-1.155-1.154c-0.637,0-1.127,0.516-1.127,1.154v13.96
			c0.125,3.204,1.013,9.27,6.219,9.222c0,0-1.277,0.488-2.832-0.26c0,0,0.067,0.294-0.013,1.359
			c-0.084,1.066,0.066,1.979,0.312,2.405h9.337c0,0-1.264-3.17,1.722-7.371c0,0,3.491-4.888,3.491-8.454L29.699,51.845
			L29.699,51.845z"/>
		<path fill="#FFFFFF" d="M93.227,46.859c0.323-0.589,1.405,0.384,1.405,0.384s-0.191-0.022-0.825,0.391
			C93.042,48.133,92.906,47.44,93.227,46.859L93.227,46.859z M95.942,51.206c0.029,0,3.264,0.309,3.742-2.803
			c0,0,0.181,3.33,3.279,1.566c0,0-0.293,3.389,2.941,1.787c0,0-0.709,2.748,1.792,2.418c0,0,6.276-14.879-10.469-11.491
			c0,0,4.399-3.266,9.303-0.613c0,0-4.343-6.369-13.974-0.775c0,0,2.01,1.054,1.107,2.967c0,0-1.196,0.878-1.658,1.909
			c-0.461,1.032-0.067,4.087-3.94,4.275c0,0-0.622,1.919,2.014,2.661c0.49,0.141,0.596,0.027,1.804-0.975
			C93.142,51.09,95.912,51.206,95.942,51.206L95.942,51.206z"/>
		<path fill="#FFFFFF" d="M104.04,58.864c0.328-0.439,1.759-1.741,1.481-2.139c-1.059-1.518-4.49-4.938-7.096-3.802
			c-0.859,0.374-2.156,1.073-2.627,1.272c-1.802,0.757-3.339,1.995-4.146,3.817c-1.717,3.872,1.255,7.339,4.08,9.651
			c1.476,1.209,3.016,2.333,4.479,3.556c1.074,0.901,2.431,2.377,1.91,3.925c-0.472,1.396-2.537,2.381-3.616,0.946
			c-0.49-0.656-0.55-1.763,0.217-2.241c0.803-0.505,1.701,0.335,1.896,1.093c0.136-1.465-0.338-3.18-1.935-3.593
			c-1.512-0.383-3.121,0.581-3.889,1.852c-1.392,2.295-0.563,5.766,1.73,7.166c2.373,1.448,5.751,0.573,7.307-1.674
			c0.979-1.414,1.104-3.272,0.454-4.851c-0.68-1.653-2.166-2.685-3.549-3.729c-1.59-1.189-2.82-2.381-4.003-4.059
			c-1.709-2.418-1.766-5.354-1.351-6.32c-0.471,2.063,0.803,4.155,2.063,5.679c1.455,1.763,3.323,3.088,5.185,4.379
			c0.968,0.676,1.877,1.458,2.42,2.527c-0.133-1.479-0.843-2.835-1.619-4.071c0.633,0.116,1.492,0.28,2.09-0.048
			c0.973-0.533-0.164-1.79-0.61-2.271c1.431-0.182,2.813-1.066,3.32-2.459c0.591-1.626-0.132-3.406-0.881-4.852
			C106.125,63.733,102.045,61.562,104.04,58.864L104.04,58.864z"/>
		<path fill="#FFFFFF" d="M70.377,87.757v1.854c0,0-1.617-0.485-2.432,0.662c-0.778,1.104-10.979,15.717-11.83,16.933
			c-0.311-0.574-0.588-1.154-0.832-1.726l0.109-13.485c-1.942,0.39-3.861,0.314-5.236-0.614v-2.357c0,0,3.419,2.675,9.679,0.082
			c6.265-2.596,8.315-2.299,10.019-1.335c0,0-2.805-2.251-9.129,0.502c-6.464,2.821-9.827,0.557-10.956-0.435l0.015-3.241
			c0,0,4.205,4.974,10.765,2.299C67.106,84.221,70.377,87.757,70.377,87.757L70.377,87.757z M71.569,91.835
			c0,1.018-0.825,1.845-1.845,1.845c-0.427,0-0.803-0.168-1.114-0.414l-0.362,0.67l0.779,0.506l-7.798,17.031c0,0-1.843,0-1.983,0
			c-0.266-0.171-0.395-0.417-0.582-0.629l9.653-17.857c0,0,0,0-0.001,0L58.26,110.372c-0.706-0.847-1.308-1.722-1.824-2.599
			l11.667-16.82c0.4-0.591,0.921-0.966,1.623-0.966C70.744,89.987,71.569,90.813,71.569,91.835L71.569,91.835z M53.127,92.986
			c-1.113-0.024-2.14-0.273-2.974-0.834c-0.797,10.404,5.29,16.027,5.29,16.027c-0.429-0.39-1.011-0.602-1.659-0.479
			c-0.828,0.167-1.47,0.871-1.549,1.708c-0.111,1.154,0.791,2.124,1.923,2.124c0.487,0,0.907-0.184,1.259-0.468
			c1.425-1.113,2.799,0.291,2.905,0.399l0,0C50.97,103.78,52.84,94.236,53.127,92.986L53.127,92.986z M65.493,88.016
			c0,0-0.552,0.161-1.425,0.476l0.116,4.529l1.309-1.879V88.016L65.493,88.016z M63.935,88.539
			c-0.456,0.167-0.992,0.375-1.585,0.628l0.16,6.255l1.385-1.992L63.935,88.539L63.935,88.539z M62.227,89.222
			c-0.502,0.212-1.037,0.458-1.594,0.734l0.202,7.866l1.337-1.916L62.227,89.222L62.227,89.222z M60.518,90.015
			c-0.22,0.116-0.446,0.226-0.671,0.348c-0.297,0.157-0.606,0.312-0.927,0.458l0.241,9.414l1.29-1.854L60.518,90.015L60.518,90.015z
			 M58.808,90.868c-0.518,0.239-1.056,0.451-1.611,0.636l0.285,11.135l1.245-1.789L58.808,90.868L58.808,90.868z M57.1,91.538
			c-0.535,0.174-1.08,0.327-1.626,0.437l0.335,13.069l1.197-1.719L57.1,91.538L57.1,91.538z"/>
	</g>
	<line fill="none" stroke="#EC1C24" stroke-width="2" stroke-miterlimit="10" x1="396.73" y1="0" x2="396.73" y2="134.071"/>
	<g>
		<path fill="#EC1C24" d="M429.984,5.273c0.041-0.336,0.293-0.63,0.756-0.63h0.672c0.336,0,0.588,0.168,0.713,0.42l9.234,19.813
			c0.084,0,0.084,0,0.127,0l9.234-19.813c0.127-0.252,0.336-0.42,0.713-0.42h0.672c0.463,0,0.715,0.294,0.756,0.63l4.953,28.208
			c0.127,0.587-0.209,0.965-0.756,0.965h-3.818c-0.379,0-0.715-0.336-0.799-0.63l-2.477-15.909c-0.041,0-0.125,0-0.125,0
			l-7.346,16.497c-0.084,0.252-0.336,0.462-0.715,0.462h-0.756c-0.377,0-0.586-0.21-0.713-0.462l-7.43-16.497c0,0-0.084,0-0.127,0
			l-2.434,15.909c-0.043,0.294-0.379,0.63-0.756,0.63h-3.777c-0.547,0-0.883-0.378-0.799-0.965L429.984,5.273z"/>
		<path fill="#EC1C24" d="M474.352,4.644c8.395,0,15.111,6.758,15.111,15.154s-6.717,15.07-15.111,15.07
			c-8.396,0-15.07-6.674-15.07-15.07S465.955,4.644,474.352,4.644z M474.352,29.41c5.289,0,9.654-4.324,9.654-9.613
			s-4.365-9.697-9.654-9.697s-9.613,4.408-9.613,9.697S469.062,29.41,474.352,29.41z"/>
		<path fill="#EC1C24" d="M488.535,6.155c-0.252-0.546,0.084-1.091,0.715-1.091h4.281c0.377,0,0.629,0.252,0.713,0.462l8.102,18.05
			h0.211l8.102-18.05c0.084-0.21,0.336-0.462,0.713-0.462h4.281c0.631,0,0.967,0.545,0.715,1.091l-13.014,28.25
			c-0.125,0.252-0.336,0.462-0.713,0.462h-0.42c-0.379,0-0.588-0.21-0.715-0.462L488.535,6.155z"/>
		<path fill="#EC1C24" d="M517.875,5.861c0-0.419,0.336-0.797,0.797-0.797h17.086c0.461,0,0.797,0.378,0.797,0.797v3.442
			c0,0.419-0.336,0.797-0.797,0.797h-12.426v6.884h10.369c0.42,0,0.797,0.378,0.797,0.797v3.484c0,0.461-0.377,0.797-0.797,0.797
			h-10.369v7.346h12.426c0.461,0,0.797,0.377,0.797,0.797v3.442c0,0.419-0.336,0.797-0.797,0.797h-17.086
			c-0.461,0-0.797-0.378-0.797-0.797V5.861z"/>
		<path fill="#EC1C24" d="M543.352,5.273c0.043-0.336,0.295-0.63,0.756-0.63h0.672c0.336,0,0.588,0.168,0.715,0.42l9.234,19.813
			c0.084,0,0.084,0,0.125,0l9.236-19.813c0.125-0.252,0.336-0.42,0.713-0.42h0.672c0.461,0,0.713,0.294,0.756,0.63l4.953,28.208
			c0.125,0.587-0.211,0.965-0.756,0.965h-3.82c-0.377,0-0.713-0.336-0.797-0.63l-2.477-15.909c-0.043,0-0.127,0-0.127,0
			l-7.346,16.497c-0.084,0.252-0.336,0.462-0.713,0.462h-0.756c-0.379,0-0.588-0.21-0.713-0.462l-7.432-16.497c0,0-0.084,0-0.125,0
			l-2.436,15.909c-0.041,0.294-0.377,0.63-0.754,0.63h-3.779c-0.545,0-0.881-0.378-0.797-0.965L543.352,5.273z"/>
		<path fill="#EC1C24" d="M574.623,5.861c0-0.419,0.336-0.797,0.797-0.797h17.084c0.463,0,0.799,0.378,0.799,0.797v3.442
			c0,0.419-0.336,0.797-0.799,0.797H580.08v6.884h10.367c0.42,0,0.797,0.378,0.797,0.797v3.484c0,0.461-0.377,0.797-0.797,0.797
			H580.08v7.346h12.424c0.463,0,0.799,0.377,0.799,0.797v3.442c0,0.419-0.336,0.797-0.799,0.797H575.42
			c-0.461,0-0.797-0.378-0.797-0.797V5.861z"/>
		<path fill="#EC1C24" d="M596.699,5.399c0-0.42,0.379-0.756,0.797-0.756h0.631c0.293,0,0.504,0.084,0.713,0.294l17.127,18.26h0.084
			V5.861c0-0.419,0.336-0.797,0.797-0.797h3.863c0.42,0,0.797,0.378,0.797,0.797v28.25c0,0.42-0.377,0.756-0.797,0.756h-0.588
			c-0.295,0-0.504-0.084-0.715-0.294L602.199,15.6h-0.084v18.05c0,0.419-0.336,0.797-0.799,0.797h-3.82
			c-0.418,0-0.797-0.378-0.797-0.797V5.399z"/>
		<path fill="#EC1C24" d="M631.285,10.101h-6.424c-0.461,0-0.797-0.378-0.797-0.797V5.861c0-0.419,0.336-0.797,0.797-0.797h18.344
			c0.463,0,0.799,0.378,0.799,0.797v3.442c0,0.419-0.336,0.797-0.799,0.797h-6.422V33.65c0,0.419-0.377,0.797-0.797,0.797h-3.904
			c-0.42,0-0.797-0.378-0.797-0.797V10.101z"/>
		<path fill="#EC1C24" d="M426.584,44.336c0-0.419,0.379-0.797,0.797-0.797h3.904c0.42,0,0.799,0.378,0.799,0.797v27.789
			c0,0.42-0.379,0.798-0.799,0.798h-3.904c-0.418,0-0.797-0.378-0.797-0.798V44.336z"/>
		<path fill="#EC1C24" d="M437.119,43.875c0-0.42,0.379-0.756,0.797-0.756h0.631c0.293,0,0.504,0.084,0.713,0.294l17.127,18.26
			h0.084V44.336c0-0.419,0.336-0.797,0.797-0.797h3.863c0.42,0,0.797,0.378,0.797,0.797v28.25c0,0.42-0.377,0.756-0.797,0.756
			h-0.588c-0.295,0-0.504-0.084-0.715-0.294l-17.209-18.974h-0.084v18.05c0,0.42-0.336,0.798-0.799,0.798h-3.82
			c-0.418,0-0.797-0.378-0.797-0.798V43.875z"/>
		<path fill="#EC1C24" d="M466.961,43.875c0-0.42,0.379-0.756,0.797-0.756h0.631c0.293,0,0.504,0.084,0.713,0.294l17.127,18.26
			h0.084V44.336c0-0.419,0.336-0.797,0.797-0.797h3.863c0.42,0,0.797,0.378,0.797,0.797v28.25c0,0.42-0.377,0.756-0.797,0.756
			h-0.588c-0.295,0-0.504-0.084-0.715-0.294l-17.209-18.974h-0.084v18.05c0,0.42-0.336,0.798-0.799,0.798h-3.82
			c-0.418,0-0.797-0.378-0.797-0.798V43.875z"/>
		<path fill="#EC1C24" d="M510.152,43.119c8.396,0,15.111,6.758,15.111,15.154c0,8.395-6.715,15.07-15.111,15.07
			c-8.395,0-15.07-6.675-15.07-15.07C495.082,49.877,501.758,43.119,510.152,43.119z M510.152,67.886
			c5.289,0,9.654-4.324,9.654-9.613s-4.365-9.697-9.654-9.697s-9.613,4.408-9.613,9.697S504.863,67.886,510.152,67.886z"/>
		<path fill="#EC1C24" d="M524.338,44.63c-0.252-0.546,0.084-1.091,0.713-1.091h4.281c0.379,0,0.631,0.252,0.715,0.462l8.102,18.05
			h0.209l8.102-18.05c0.084-0.21,0.336-0.462,0.713-0.462h4.283c0.629,0,0.965,0.545,0.713,1.091l-13.014,28.25
			c-0.125,0.252-0.334,0.462-0.713,0.462h-0.42c-0.377,0-0.588-0.21-0.713-0.462L524.338,44.63z"/>
		<path fill="#EC1C24" d="M547.633,71.831l13.055-28.25c0.127-0.252,0.336-0.462,0.715-0.462h0.42c0.42,0,0.586,0.21,0.713,0.462
			l12.93,28.25c0.252,0.546-0.084,1.092-0.715,1.092h-3.652c-0.629,0-0.922-0.252-1.217-0.84l-2.057-4.533h-12.551l-2.057,4.533
			c-0.168,0.42-0.547,0.84-1.219,0.84h-3.65C547.717,72.923,547.381,72.377,547.633,71.831z M565.768,62.89l-4.197-9.235h-0.127
			l-4.113,9.235H565.768z"/>
		<path fill="#EC1C24" d="M579.91,48.576h-6.422c-0.463,0-0.797-0.378-0.797-0.797v-3.442c0-0.419,0.334-0.797,0.797-0.797h18.344
			c0.461,0,0.797,0.378,0.797,0.797v3.442c0,0.419-0.336,0.797-0.797,0.797h-6.422v23.549c0,0.42-0.379,0.798-0.799,0.798h-3.902
			c-0.42,0-0.799-0.378-0.799-0.798V48.576z"/>
		<path fill="#EC1C24" d="M595.189,44.336c0-0.419,0.377-0.797,0.797-0.797h3.904c0.42,0,0.797,0.378,0.797,0.797v27.789
			c0,0.42-0.377,0.798-0.797,0.798h-3.904c-0.42,0-0.797-0.378-0.797-0.798V44.336z"/>
		<path fill="#EC1C24" d="M619.072,43.119c8.396,0,15.111,6.758,15.111,15.154c0,8.395-6.715,15.07-15.111,15.07
			c-8.395,0-15.07-6.675-15.07-15.07C604.002,49.877,610.678,43.119,619.072,43.119z M619.072,67.886
			c5.289,0,9.654-4.324,9.654-9.613s-4.365-9.697-9.654-9.697s-9.613,4.408-9.613,9.697S613.783,67.886,619.072,67.886z"/>
		<path fill="#EC1C24" d="M637.498,43.875c0-0.42,0.377-0.756,0.797-0.756h0.629c0.295,0,0.504,0.084,0.715,0.294l17.125,18.26
			h0.084V44.336c0-0.419,0.336-0.797,0.799-0.797h3.861c0.42,0,0.797,0.378,0.797,0.797v28.25c0,0.42-0.377,0.756-0.797,0.756
			h-0.588c-0.293,0-0.504-0.084-0.713-0.294l-17.211-18.974h-0.084v18.05c0,0.42-0.336,0.798-0.797,0.798h-3.82
			c-0.42,0-0.797-0.378-0.797-0.798V43.875z"/>
		<path fill="#EC1C24" d="M426.584,82.812c0-0.42,0.336-0.798,0.797-0.798h3.863c0.42,0,0.797,0.378,0.797,0.798v23.549h10.705
			c0.461,0,0.797,0.378,0.797,0.798v3.441c0,0.42-0.336,0.798-0.797,0.798h-15.365c-0.461,0-0.797-0.378-0.797-0.798V82.812z"/>
		<path fill="#EC1C24" d="M445.346,110.307l13.055-28.25c0.125-0.252,0.336-0.462,0.713-0.462h0.42c0.42,0,0.588,0.21,0.713,0.462
			l12.93,28.25c0.252,0.546-0.084,1.092-0.713,1.092h-3.652c-0.631,0-0.924-0.252-1.217-0.84l-2.059-4.533h-12.551l-2.057,4.533
			c-0.168,0.42-0.545,0.84-1.217,0.84h-3.652C445.43,111.398,445.094,110.853,445.346,110.307z M463.479,101.366l-4.197-9.235
			h-0.125l-4.115,9.235H463.479z"/>
		<path fill="#EC1C24" d="M490.889,96.539c2.434,0.839,5.037,2.812,5.037,6.758c0,4.701-4.029,8.102-9.15,8.102h-10.16
			c-0.461,0-0.797-0.378-0.797-0.798V82.812c0-0.42,0.336-0.798,0.797-0.798h9.613c4.996,0,8.857,3.358,8.857,7.766
			c0,3.148-2.016,5.457-4.197,6.549V96.539z M485.809,94.355c2.141,0,3.527-1.679,3.527-3.777s-1.387-3.568-3.527-3.568h-4.574
			v7.346H485.809z M486.396,106.445c2.1,0,3.693-1.638,3.693-3.82c0-2.099-1.594-3.651-3.693-3.651h-5.162v7.472H486.396z"/>
	</g>
</g>
</svg>
