<?xml version="1.0" encoding="utf-8"?>
<!-- Generator: Adobe Illustrator 16.0.4, SVG Export Plug-In . SVG Version: 6.00 Build 0)  -->
<!DOCTYPE svg PUBLIC "-//W3C//DTD SVG 1.1//EN" "http://www.w3.org/Graphics/SVG/1.1/DTD/svg11.dtd">
<svg version="1.1" id="Layer_1" xmlns="http://www.w3.org/2000/svg" xmlns:xlink="http://www.w3.org/1999/xlink" x="0px" y="0px"
	 width="334.902px" height="74px" viewBox="0 0 334.902 74" enable-background="new 0 0 334.902 74" xml:space="preserve">
<g>
	<g>
		<path fill="#FFFFFF" d="M216.119,5.858c0.021-0.167,0.146-0.313,0.377-0.313h0.333c0.167,0,0.292,0.083,0.354,0.208l4.593,9.853
			c0.041,0,0.041,0,0.064,0l4.593-9.853c0.061-0.125,0.166-0.208,0.354-0.208h0.333c0.23,0,0.356,0.146,0.377,0.313l2.461,14.027
			c0.064,0.292-0.102,0.48-0.374,0.48h-1.899c-0.188,0-0.354-0.167-0.398-0.313l-1.23-7.912c-0.021,0-0.061,0-0.061,0l-3.654,8.203
			c-0.041,0.126-0.167,0.23-0.354,0.23h-0.378c-0.187,0-0.292-0.104-0.354-0.23l-3.694-8.203c0,0-0.041,0-0.065,0l-1.21,7.912
			c-0.021,0.146-0.187,0.313-0.374,0.313h-1.88c-0.271,0-0.438-0.188-0.397-0.48L216.119,5.858z"/>
		<path fill="#FFFFFF" d="M238.19,5.545c4.178,0,7.516,3.36,7.516,7.536c0,4.174-3.338,7.494-7.516,7.494
			c-4.175,0-7.492-3.319-7.492-7.494C230.698,8.905,234.016,5.545,238.19,5.545z M238.19,17.86c2.631,0,4.803-2.149,4.803-4.779
			c0-2.63-2.172-4.822-4.803-4.822c-2.628,0-4.779,2.192-4.779,4.822C233.411,15.71,235.562,17.86,238.19,17.86z"/>
		<path fill="#FFFFFF" d="M245.254,6.296c-0.122-0.271,0.044-0.543,0.357-0.543h2.128c0.187,0,0.312,0.125,0.356,0.229l4.028,8.976
			h0.102l4.032-8.976c0.04-0.104,0.166-0.229,0.354-0.229h2.128c0.312,0,0.479,0.272,0.356,0.543l-6.473,14.047
			c-0.061,0.126-0.166,0.23-0.354,0.23h-0.21c-0.188,0-0.293-0.104-0.354-0.23L245.254,6.296z"/>
		<path fill="#FFFFFF" d="M259.854,6.15c0-0.209,0.167-0.396,0.395-0.396h8.498c0.228,0,0.395,0.188,0.395,0.396v1.712
			c0,0.209-0.167,0.396-0.395,0.396h-6.18v3.423h5.156c0.208,0,0.395,0.188,0.395,0.397v1.732c0,0.23-0.187,0.397-0.395,0.397
			h-5.156v3.652h6.18c0.228,0,0.395,0.188,0.395,0.397v1.711c0,0.209-0.167,0.397-0.395,0.397h-8.498
			c-0.228,0-0.395-0.188-0.395-0.397V6.15z"/>
		<path fill="#FFFFFF" d="M272.529,5.858c0.021-0.167,0.146-0.313,0.378-0.313h0.333c0.166,0,0.292,0.083,0.354,0.208l4.592,9.853
			c0.041,0,0.041,0,0.065,0l4.592-9.853c0.062-0.125,0.167-0.208,0.354-0.208h0.333c0.231,0,0.357,0.146,0.378,0.313l2.461,14.027
			c0.064,0.292-0.103,0.48-0.374,0.48h-1.9c-0.187,0-0.354-0.167-0.397-0.313l-1.23-7.912c-0.021,0-0.062,0-0.062,0l-3.654,8.203
			c-0.04,0.126-0.166,0.23-0.354,0.23h-0.377c-0.188,0-0.292-0.104-0.354-0.23l-3.695-8.203c0,0-0.041,0-0.064,0l-1.21,7.912
			c-0.021,0.146-0.187,0.313-0.374,0.313h-1.88c-0.271,0-0.438-0.188-0.397-0.48L272.529,5.858z"/>
		<path fill="#FFFFFF" d="M288.088,6.15c0-0.209,0.167-0.396,0.398-0.396h8.494c0.231,0,0.397,0.188,0.397,0.396v1.712
			c0,0.209-0.166,0.396-0.397,0.396h-6.18v3.423h5.156c0.211,0,0.398,0.188,0.398,0.397v1.732c0,0.23-0.188,0.397-0.398,0.397
			h-5.156v3.652h6.18c0.231,0,0.397,0.188,0.397,0.397v1.711c0,0.209-0.166,0.397-0.397,0.397h-8.494
			c-0.231,0-0.398-0.188-0.398-0.397V6.15z"/>
		<path fill="#FFFFFF" d="M299.074,5.921c0-0.209,0.188-0.376,0.398-0.376h0.312c0.146,0,0.251,0.042,0.354,0.146l8.519,9.079h0.041
			V6.15c0-0.209,0.166-0.396,0.397-0.396h1.921c0.207,0,0.394,0.188,0.394,0.396v14.049c0,0.208-0.187,0.375-0.394,0.375h-0.293
			c-0.146,0-0.251-0.042-0.356-0.146l-8.557-9.436h-0.044v8.976c0,0.209-0.166,0.397-0.395,0.397h-1.899
			c-0.211,0-0.398-0.188-0.398-0.397V5.921z"/>
		<path fill="#FFFFFF" d="M316.281,8.258h-3.191c-0.231,0-0.397-0.188-0.397-0.396V6.15c0-0.209,0.166-0.396,0.397-0.396h9.12
			c0.231,0,0.397,0.188,0.397,0.396v1.712c0,0.209-0.166,0.396-0.397,0.396h-3.192v11.71c0,0.209-0.189,0.397-0.397,0.397h-1.94
			c-0.211,0-0.398-0.188-0.398-0.397V8.258z"/>
		<path fill="#FFFFFF" d="M214.43,25.295c0-0.209,0.187-0.397,0.394-0.397h1.941c0.211,0,0.397,0.188,0.397,0.397v13.817
			c0,0.211-0.187,0.398-0.397,0.398h-1.941c-0.207,0-0.394-0.187-0.394-0.398V25.295z"/>
		<path fill="#FFFFFF" d="M219.671,25.065c0-0.209,0.188-0.375,0.395-0.375h0.312c0.146,0,0.252,0.042,0.357,0.146l8.515,9.08h0.044
			v-8.621c0-0.209,0.167-0.397,0.395-0.397h1.921c0.211,0,0.397,0.188,0.397,0.397v14.048c0,0.207-0.187,0.375-0.397,0.375h-0.292
			c-0.146,0-0.252-0.042-0.354-0.146l-8.56-9.436h-0.041v8.975c0,0.211-0.167,0.398-0.397,0.398h-1.9
			c-0.207,0-0.395-0.187-0.395-0.398V25.065z"/>
		<path fill="#FFFFFF" d="M234.52,25.065c0-0.209,0.187-0.375,0.397-0.375h0.312c0.146,0,0.252,0.042,0.354,0.146l8.519,9.08h0.041
			v-8.621c0-0.209,0.166-0.397,0.397-0.397h1.921c0.207,0,0.395,0.188,0.395,0.397v14.048c0,0.207-0.188,0.375-0.395,0.375h-0.293
			c-0.146,0-0.251-0.042-0.356-0.146l-8.556-9.436h-0.045v8.975c0,0.211-0.166,0.398-0.394,0.398h-1.9
			c-0.211,0-0.397-0.187-0.397-0.398V25.065z"/>
		<path fill="#FFFFFF" d="M256.006,24.69c4.174,0,7.516,3.36,7.516,7.535c0,4.174-3.342,7.494-7.516,7.494s-7.495-3.319-7.495-7.494
			C248.511,28.05,251.832,24.69,256.006,24.69z M256.006,37.004c2.631,0,4.8-2.149,4.8-4.779c0-2.63-2.169-4.822-4.8-4.822
			s-4.779,2.191-4.779,4.822C251.227,34.855,253.375,37.004,256.006,37.004z"/>
		<path fill="#FFFFFF" d="M263.069,25.441c-0.126-0.271,0.041-0.543,0.354-0.543h2.132c0.187,0,0.312,0.126,0.354,0.229l4.027,8.976
			h0.105l4.028-8.976c0.041-0.104,0.167-0.229,0.354-0.229h2.132c0.312,0,0.479,0.272,0.354,0.543l-6.469,14.048
			c-0.064,0.126-0.17,0.229-0.357,0.229h-0.207c-0.19,0-0.293-0.104-0.357-0.229L263.069,25.441z"/>
		<path fill="#FFFFFF" d="M274.661,38.966l6.492-14.046c0.062-0.126,0.167-0.229,0.354-0.229h0.211c0.207,0,0.292,0.104,0.354,0.229
			l6.428,14.046c0.126,0.272-0.04,0.544-0.354,0.544h-1.814c-0.313,0-0.459-0.126-0.605-0.418l-1.023-2.254h-6.241l-1.022,2.254
			c-0.085,0.209-0.272,0.418-0.605,0.418h-1.818C274.702,39.51,274.535,39.238,274.661,38.966z M283.68,34.521l-2.088-4.593h-0.064
			l-2.043,4.593H283.68z"/>
		<path fill="#FFFFFF" d="M290.719,27.403h-3.191c-0.231,0-0.397-0.188-0.397-0.397v-1.711c0-0.209,0.166-0.397,0.397-0.397h9.12
			c0.231,0,0.397,0.188,0.397,0.397v1.711c0,0.209-0.166,0.397-0.397,0.397h-3.192v11.708c0,0.211-0.189,0.398-0.397,0.398h-1.94
			c-0.211,0-0.398-0.187-0.398-0.398V27.403z"/>
		<path fill="#FFFFFF" d="M298.323,25.295c0-0.209,0.187-0.397,0.395-0.397h1.94c0.211,0,0.398,0.188,0.398,0.397v13.817
			c0,0.211-0.188,0.398-0.398,0.398h-1.94c-0.208,0-0.395-0.187-0.395-0.398V25.295z"/>
		<path fill="#FFFFFF" d="M310.204,24.69c4.174,0,7.516,3.36,7.516,7.535c0,4.174-3.342,7.494-7.516,7.494
			c-4.175,0-7.496-3.319-7.496-7.494C302.708,28.05,306.029,24.69,310.204,24.69z M310.204,37.004c2.631,0,4.8-2.149,4.8-4.779
			c0-2.63-2.169-4.822-4.8-4.822c-2.632,0-4.779,2.191-4.779,4.822C305.425,34.855,307.572,37.004,310.204,37.004z"/>
		<path fill="#FFFFFF" d="M319.375,25.065c0-0.209,0.187-0.375,0.397-0.375h0.313c0.146,0,0.251,0.042,0.354,0.146l8.518,9.08h0.041
			v-8.621c0-0.209,0.167-0.397,0.398-0.397h1.92c0.208,0,0.395,0.188,0.395,0.397v14.048c0,0.207-0.187,0.375-0.395,0.375h-0.292
			c-0.146,0-0.252-0.042-0.357-0.146l-8.556-9.436h-0.044v8.975c0,0.211-0.167,0.398-0.395,0.398h-1.9
			c-0.211,0-0.397-0.187-0.397-0.398V25.065z"/>
		<path fill="#FFFFFF" d="M214.43,44.438c0-0.207,0.166-0.396,0.394-0.396h1.921c0.211,0,0.397,0.189,0.397,0.396v11.71h5.323
			c0.229,0,0.398,0.189,0.398,0.398v1.71c0,0.21-0.17,0.397-0.398,0.397h-7.642c-0.228,0-0.394-0.187-0.394-0.397V44.438z"/>
		<path fill="#FFFFFF" d="M223.768,58.11l6.488-14.045c0.065-0.126,0.167-0.231,0.357-0.231h0.207c0.208,0,0.293,0.105,0.354,0.231
			l6.432,14.045c0.126,0.272-0.044,0.544-0.356,0.544h-1.815c-0.312,0-0.459-0.125-0.605-0.418l-1.023-2.254h-6.24l-1.023,2.254
			c-0.082,0.209-0.271,0.418-0.605,0.418h-1.814C223.808,58.654,223.642,58.382,223.768,58.11z M232.782,53.666l-2.087-4.592h-0.062
			l-2.047,4.592H232.782z"/>
		<path fill="#FFFFFF" d="M246.42,51.264c1.21,0.418,2.505,1.401,2.505,3.362c0,2.337-2.002,4.028-4.552,4.028h-5.051
			c-0.228,0-0.395-0.187-0.395-0.397V44.438c0-0.207,0.167-0.396,0.395-0.396h4.783c2.48,0,4.401,1.671,4.401,3.862
			c0,1.565-0.999,2.714-2.087,3.256V51.264z M243.895,50.18c1.063,0,1.754-0.836,1.754-1.88s-0.69-1.774-1.754-1.774h-2.274v3.654
			H243.895z M244.187,56.191c1.044,0,1.839-0.814,1.839-1.9c0-1.043-0.795-1.815-1.839-1.815h-2.566v3.715H244.187z"/>
	</g>
	<line fill="none" stroke="#FFFFFF" stroke-miterlimit="10" x1="200.292" y1="3.204" x2="200.292" y2="69.916"/>
	<g>
		<path fill="#FFFFFF" d="M73.312,13.12c0-2.545,2.063-4.609,4.61-4.609c2.546,0,4.609,2.064,4.609,4.609
			c0,1.499-0.721,2.826-1.829,3.668l-0.398-0.569c-0.092-0.209-0.333-0.379-0.541-0.379h-2.842c-0.209,0-0.306,0.17-0.218,0.379
			l1.055,1.502C75.287,17.635,73.312,15.611,73.312,13.12 M82.508,19.364c1.917-1.414,3.162-3.681,3.162-6.244
			c0-4.292-3.481-7.77-7.771-7.77c-4.291,0-7.771,3.478-7.771,7.77c0,4.292,3.481,7.771,7.771,7.771c0.66,0,1.299-0.09,1.907-0.247
			l0.856,1.218c0.088,0.21,0.33,0.379,0.537,0.379h2.842c0.211,0,0.306-0.169,0.218-0.379L82.508,19.364L82.508,19.364z"/>
		<path fill="#FFFFFF" d="M93.355,20.814c-3.399,0-5.962-2.462-5.962-5.729V6.177c0-0.275,0.245-0.519,0.521-0.519h1.995
			c0.289,0,0.52,0.232,0.52,0.519v8.762c0,1.737,1.176,2.905,2.927,2.905c1.737,0,2.947-1.186,2.947-2.883V6.177
			c0-0.286,0.234-0.519,0.52-0.519h1.996c0.275,0,0.517,0.243,0.517,0.519v8.908C99.334,18.353,96.765,20.814,93.355,20.814"/>
		<path fill="#FFFFFF" d="M110.185,20.604h-8.549c-0.289,0-0.52-0.232-0.52-0.517V6.177c0-0.286,0.231-0.519,0.52-0.519h8.549
			c0.285,0,0.52,0.232,0.52,0.519v1.724c0,0.285-0.235,0.519-0.52,0.519h-6.099v3.207h5.068c0.279,0,0.52,0.24,0.52,0.519v1.744
			c0,0.286-0.231,0.518-0.52,0.518h-5.068v3.437h6.099c0.285,0,0.52,0.233,0.52,0.519v1.725
			C110.705,20.372,110.47,20.604,110.185,20.604"/>
		<path fill="#FFFFFF" d="M121.706,20.604h-8.55c-0.286,0-0.517-0.232-0.517-0.517V6.177c0-0.286,0.231-0.519,0.517-0.519h8.55
			c0.289,0,0.52,0.232,0.52,0.519v1.724c0,0.285-0.231,0.519-0.52,0.519h-6.099v3.207h5.072c0.275,0,0.517,0.24,0.517,0.519v1.744
			c0,0.286-0.231,0.518-0.517,0.518h-5.072v3.437h6.099c0.289,0,0.52,0.233,0.52,0.519v1.725
			C122.226,20.372,121.995,20.604,121.706,20.604"/>
		<path fill="#FFFFFF" d="M136.408,20.814h-0.292c-0.18,0-0.316-0.055-0.442-0.182l-8.451-9.317v8.77
			c0,0.286-0.234,0.519-0.52,0.519h-1.91c-0.279,0-0.52-0.242-0.52-0.519V5.945c0-0.269,0.238-0.497,0.52-0.497h0.312
			c0.18,0,0.316,0.057,0.442,0.183l8.41,8.967V6.177c0-0.286,0.231-0.519,0.52-0.519h1.931c0.275,0,0.52,0.243,0.52,0.519v14.14
			C136.928,20.588,136.69,20.814,136.408,20.814"/>
		<path fill="#FFFFFF" d="M139.661,10.005c-0.122,0-0.238-0.07-0.289-0.103l-0.554-0.394c-0.088-0.07-0.265-0.259-0.003-0.609
			c0.608-0.788,0.955-1.632,0.955-2.321c0-0.076-0.003-0.137-0.01-0.194c-0.177,0.084-0.38,0.13-0.581,0.13
			c-0.792,0-1.326-0.595-1.326-1.481c0-0.878,0.704-1.541,1.638-1.541c0.932,0,1.873,0.754,1.873,2.44
			c0,1.806-0.816,3.104-1.431,3.924C139.848,9.968,139.749,10.005,139.661,10.005"/>
		<path fill="#FFFFFF" d="M146.725,20.814c-2.767,0-4.171-1.212-4.701-1.667c-0.248-0.198-0.35-0.389-0.133-0.781l0.762-1.302
			c0.085-0.156,0.228-0.259,0.397-0.293c0.173-0.032,0.36,0.009,0.493,0.111c0.887,0.673,1.794,1.278,3.097,1.278
			c1.006,0,1.794-0.659,1.794-1.497c0-0.956-0.778-1.675-2.597-2.411c-1.727-0.698-4.025-1.941-4.025-4.648
			c0-2.001,1.516-4.155,4.851-4.155c2.247,0,3.954,1.192,4.272,1.433c0.113,0.066,0.205,0.203,0.238,0.367
			c0.037,0.177,0.007,0.359-0.085,0.491l-0.799,1.194c-0.098,0.15-0.241,0.27-0.391,0.329c-0.18,0.07-0.36,0.057-0.51-0.044
			l-0.153-0.095c-0.85-0.535-1.648-1.039-2.699-1.039c-1.197,0-1.73,0.679-1.73,1.351c0,0.896,0.697,1.545,2.403,2.241
			c2.206,0.889,4.467,2.158,4.467,4.859C151.678,18.61,149.94,20.814,146.725,20.814"/>
		<path fill="#FFFFFF" d="M96.625,40.809H96.33c-0.177,0-0.316-0.054-0.442-0.182l-8.451-9.316v8.77
			c0,0.286-0.231,0.519-0.517,0.519h-1.914c-0.275,0-0.52-0.243-0.52-0.519V25.941c0-0.271,0.238-0.498,0.52-0.498h0.316
			c0.177,0,0.316,0.057,0.442,0.183l8.41,8.966v-8.42c0-0.287,0.231-0.519,0.52-0.519h1.931c0.275,0,0.521,0.244,0.521,0.519v14.141
			C97.146,40.582,96.907,40.809,96.625,40.809"/>
		<path fill="#FFFFFF" d="M102.489,40.602h-1.955c-0.275,0-0.52-0.241-0.52-0.52V26.173c0-0.277,0.245-0.519,0.52-0.519h1.955
			c0.275,0,0.517,0.242,0.517,0.519v13.908C103.006,40.36,102.764,40.602,102.489,40.602"/>
		<path fill="#FFFFFF" d="M112.027,40.812h-0.208c-0.143,0-0.343-0.053-0.466-0.299V40.51l-6.492-14.14
			c-0.079-0.168-0.072-0.346,0.02-0.488c0.092-0.144,0.255-0.227,0.445-0.227h2.142c0.241,0,0.408,0.156,0.469,0.307l3.998,8.903
			l3.998-8.908c0.058-0.148,0.229-0.302,0.466-0.302h2.142c0.194,0,0.357,0.083,0.445,0.227c0.092,0.143,0.102,0.32,0.024,0.488
			l-6.514,14.14C112.371,40.76,112.173,40.812,112.027,40.812"/>
		<path fill="#FFFFFF" d="M129.823,40.632h-8.549c-0.285,0-0.52-0.234-0.52-0.519v-13.91c0-0.287,0.235-0.519,0.52-0.519h8.549
			c0.286,0,0.52,0.232,0.52,0.519v1.722c0,0.287-0.234,0.521-0.52,0.521h-6.098v3.205h5.068c0.275,0,0.517,0.243,0.517,0.52v1.744
			c0,0.287-0.231,0.52-0.517,0.52h-5.068v3.437h6.098c0.286,0,0.52,0.233,0.52,0.52v1.722
			C130.343,40.398,130.109,40.632,129.823,40.632"/>
		<path fill="#FFFFFF" d="M135.847,32.387h3.304c1.064,0,1.961-0.926,1.961-2.024c0-1.04-0.897-1.917-1.961-1.917h-3.304V32.387
			L135.847,32.387z M143.373,40.632h-2.207c-0.292,0-0.411-0.195-0.442-0.255l-2.764-5.502h-2.135v5.238
			c0,0.277-0.245,0.519-0.52,0.519h-1.934c-0.286,0-0.517-0.231-0.517-0.519v-13.91c0-0.287,0.231-0.519,0.517-0.519h6.007
			c2.593,0,4.704,2.082,4.704,4.637c0,1.856-1.172,3.496-3.062,4.304l2.814,5.221c0.095,0.173,0.095,0.381,0,0.541
			C143.743,40.542,143.577,40.632,143.373,40.632"/>
		<path fill="#FFFFFF" d="M150.722,40.843c-2.764,0-4.167-1.214-4.698-1.669c-0.249-0.197-0.354-0.389-0.133-0.782l0.758-1.302
			c0.089-0.153,0.231-0.258,0.398-0.292c0.173-0.032,0.36,0.009,0.493,0.112c0.891,0.671,1.798,1.276,3.101,1.276
			c1.002,0,1.787-0.658,1.787-1.498c0-0.953-0.771-1.676-2.589-2.412c-1.727-0.697-4.025-1.939-4.025-4.648
			c0-1.999,1.52-4.154,4.847-4.154c2.25,0,3.954,1.192,4.273,1.431c0.115,0.069,0.204,0.205,0.238,0.368
			c0.037,0.179,0.007,0.359-0.085,0.492l-0.796,1.194c-0.102,0.149-0.244,0.27-0.395,0.329c-0.176,0.072-0.359,0.055-0.51-0.043
			l-0.152-0.098c-0.847-0.534-1.646-1.038-2.699-1.038c-1.193,0-1.73,0.679-1.73,1.351c0,0.898,0.697,1.546,2.406,2.241
			c2.207,0.887,4.464,2.158,4.464,4.859C155.675,38.637,153.941,40.843,150.722,40.843"/>
		<path fill="#FFFFFF" d="M160.682,40.632h-1.958c-0.275,0-0.517-0.241-0.517-0.519v-13.91c0-0.277,0.241-0.519,0.517-0.519h1.958
			c0.275,0,0.517,0.242,0.517,0.519v13.91C161.198,40.391,160.957,40.632,160.682,40.632"/>
		<path fill="#FFFFFF" d="M168.878,40.602h-1.951c-0.279,0-0.521-0.241-0.521-0.52V28.416h-3.097c-0.282,0-0.517-0.233-0.517-0.52
			v-1.723c0-0.287,0.234-0.519,0.517-0.519h9.182c0.289,0,0.523,0.232,0.523,0.519v1.723c0,0.287-0.234,0.52-0.523,0.52h-3.094
			v11.666C169.397,40.36,169.156,40.602,168.878,40.602"/>
		<path fill="#FFFFFF" d="M181.52,40.602h-1.931c-0.289,0-0.523-0.234-0.523-0.52v-6.644l-4.77-6.988
			c-0.108-0.173-0.112-0.373-0.021-0.537c0.089-0.162,0.259-0.258,0.456-0.258h2.145c0.167,0,0.316,0.081,0.432,0.239l3.267,4.693
			l3.264-4.691c0.119-0.16,0.262-0.241,0.435-0.241h2.162c0.197,0,0.371,0.096,0.459,0.258c0.092,0.164,0.082,0.364-0.021,0.535
			l-4.834,6.97v6.664C182.039,40.36,181.795,40.602,181.52,40.602"/>
		<path fill="#FFFFFF" d="M76.059,40.843c-3.385,0-5.94-2.455-5.94-5.711V26.21c0-0.261,0.228-0.49,0.489-0.49h1.999
			c0.27,0,0.491,0.22,0.491,0.49v8.776c0,1.759,1.189,2.94,2.96,2.94c1.755,0,2.982-1.2,2.982-2.92V26.21
			c0-0.27,0.221-0.49,0.489-0.49h2.002c0.259,0,0.49,0.229,0.49,0.49v8.922C82.022,38.389,79.459,40.843,76.059,40.843"/>
		<path fill="#FFFFFF" d="M72.119,56.668v-4.237h3.088c1.149,0,2.06,0.872,2.06,2.081c0,1.225-0.713,2.157-2.06,2.157H72.119
			L72.119,56.668z M72.14,50.65v-4.157h2.593c1.265,0,2.118,0.732,2.118,2.04c0,1.248-0.853,2.118-2.118,2.118H72.14L72.14,50.65z
			 M77.127,51.421c1.091-0.534,1.92-1.642,1.92-3.127c0-2.079-1.72-3.661-4.117-3.661h-4.434c-0.219,0-0.377,0.177-0.377,0.374
			v13.107c0,0.197,0.158,0.377,0.377,0.377h4.652c2.496,0,4.318-1.604,4.318-3.823c0-1.762-1.149-2.751-2.339-3.207V51.421
			L77.127,51.421z"/>
		<path fill="#FFFFFF" d="M81.022,58.113c0,0.199,0.16,0.376,0.377,0.376h7.917c0.217,0,0.377-0.177,0.377-0.376v-1.089
			c0-0.195-0.16-0.375-0.377-0.375h-6.255v-4.256h5.286c0.197,0,0.374-0.158,0.374-0.375v-1.11c0-0.199-0.177-0.376-0.374-0.376
			h-5.286v-4.038h6.255c0.217,0,0.377-0.179,0.377-0.377v-1.108c0-0.197-0.16-0.374-0.377-0.374H81.4
			c-0.218,0-0.377,0.177-0.377,0.374V58.113L81.022,58.113z"/>
		<path fill="#FFFFFF" d="M91.825,58.113c0,0.199,0.16,0.376,0.377,0.376h7.05c0.217,0,0.374-0.177,0.374-0.376v-1.089
			c0-0.195-0.157-0.375-0.374-0.375h-5.368V45.007c0-0.197-0.177-0.374-0.374-0.374h-1.309c-0.217,0-0.377,0.177-0.377,0.374V58.113
			L91.825,58.113z"/>
		<path fill="#FFFFFF" d="M101.146,58.113c0,0.199,0.16,0.376,0.374,0.376h1.292c0.194,0,0.374-0.177,0.374-0.376v-5.206h5.286
			c0.197,0,0.377-0.177,0.377-0.377v-1.088c0-0.197-0.18-0.375-0.377-0.375h-5.286v-4.574h6.255c0.218,0,0.377-0.179,0.377-0.377
			v-1.108c0-0.197-0.16-0.374-0.377-0.374h-7.92c-0.214,0-0.374,0.177-0.374,0.374V58.113L101.146,58.113z"/>
		<path fill="#FFFFFF" d="M113.119,53.779l2.417-5.423h0.099l2.435,5.423H113.119L113.119,53.779z M109.437,58.489h1.248
			c0.238,0,0.395-0.156,0.456-0.296l1.207-2.712h6.473l1.23,2.712c0.078,0.179,0.218,0.296,0.452,0.296h1.248
			c0.296,0,0.456-0.255,0.336-0.513l-6.038-13.324c-0.058-0.119-0.238-0.219-0.337-0.219h-0.197c-0.099,0-0.279,0.1-0.337,0.219
			l-6.078,13.324C108.978,58.234,109.138,58.489,109.437,58.489"/>
		<path fill="#FFFFFF" d="M123.548,57.124c0.316,0.295,1.842,1.565,4.256,1.565c2.573,0,4.416-1.686,4.416-3.742
			c0-2.417-1.961-3.505-4.256-4.435c-1.645-0.671-2.516-1.366-2.516-2.493c0-0.734,0.575-1.783,2.24-1.783
			c1.146,0,1.897,0.493,2.668,0.989c0.279,0.179,0.537,0.06,0.693-0.199l0.497-0.751c0.197-0.299,0.041-0.573-0.119-0.673
			c-0.197-0.14-1.683-1.169-3.665-1.169c-3.144,0-4.334,2.121-4.334,3.665c0,2.294,1.584,3.345,3.604,4.196
			c1.958,0.811,2.991,1.563,2.991,2.752c0,1.009-0.874,1.842-2.24,1.842c-1.526,0-2.237-0.595-3.165-1.367
			c-0.218-0.178-0.517-0.099-0.677,0.158l-0.513,0.811C123.212,56.828,123.372,56.966,123.548,57.124"/>
		<path fill="#FFFFFF" d="M136.571,58.113c0,0.199,0.177,0.376,0.374,0.376h1.305c0.201,0,0.377-0.177,0.377-0.376v-11.62h3.229
			c0.218,0,0.374-0.179,0.374-0.377v-1.108c0-0.197-0.156-0.374-0.374-0.374h-8.515c-0.218,0-0.374,0.177-0.374,0.374v1.108
			c0,0.199,0.156,0.377,0.374,0.377h3.229V58.113L136.571,58.113z"/>
		<path fill="#FFFFFF" d="M2.63,3.681v36.989c0,16.177,13.113,29.288,29.289,29.288c16.175,0,29.289-13.111,29.289-29.288V3.681
			H2.63L2.63,3.681z"/>
		<path fill="#EB2227" d="M57.992,6.897h-5.176L31.919,27.793l0,0l0,0L11.023,6.897H5.847v5.912l20.529,20.527L8.209,51.503
			c1.129,2.475,2.619,4.701,4.412,6.674l19.298-19.296l0,0l0,0l19.297,19.296c1.793-1.973,3.283-4.2,4.412-6.674L37.463,33.336
			l20.528-20.527V6.897L57.992,6.897z"/>
		<path fill="#FFFFFF" d="M36.772,32.083c-0.781-0.571-1.498,0.7-1.498,0.7c-0.49-0.666-0.963,0.058-0.963,0.058
			c0.663,0.456,0.604,1.528-0.65,1.258c-1.254-0.272-1.391-1.355-1.391-1.355l0.941,0.345l-0.001-1.563l-0.897,0.336l0.3-1.098
			H31.91h-0.706l0.301,1.098l-0.899-0.336l-0.001,1.563l0.941-0.345c0,0-0.136,1.083-1.391,1.355
			c-1.255,0.27-1.312-0.802-0.65-1.258c0,0-0.473-0.724-0.962-0.058c0,0-0.717-1.271-1.499-0.7c0,0,1.103,1.36,1.238,4.99
			c0,0,1.041-0.669,3.627-0.643c2.586-0.027,3.624,0.643,3.624,0.643C35.669,33.443,36.772,32.083,36.772,32.083"/>
		<path fill="#FFFFFF" d="M27.725,31.441c0.08,0.017,0.158,0.044,0.231,0.075c0.7-1.487,2.21-2.517,3.964-2.517
			c1.752,0,3.263,1.03,3.962,2.517c0.075-0.031,0.15-0.058,0.231-0.075c0.246-0.053,0.486-0.027,0.713,0.071
			c-0.659-1.737-2.212-3.032-4.098-3.323l-0.809,0.809l0,0l0,0l-0.809-0.809c-1.885,0.291-3.44,1.585-4.099,3.323
			C27.238,31.414,27.48,31.388,27.725,31.441L27.725,31.441z"/>
		<path fill="#EB2227" d="M31.91,37.505L31.91,37.505l0.982,0.982c1.324-0.092,2.283-0.374,2.283-0.704
			c0-0.408-1.462-0.741-3.266-0.741c-1.805,0-3.269,0.333-3.269,0.741c0,0.33,0.961,0.612,2.284,0.704L31.91,37.505L31.91,37.505
			L31.91,37.505z"/>
		<path fill="#EB2227" d="M36.259,9.684c-0.151,0.012-0.757,0.031-1.433-0.396c-0.676-0.423-1.396-0.259-1.579-0.207v0.644
			c0.184-0.051,0.903-0.217,1.579,0.207c0.675,0.425,1.281,0.408,1.433,0.394V9.684L36.259,9.684z M36.259,12.09
			c-0.151,0.01-0.757,0.03-1.433-0.395c-0.676-0.423-1.396-0.259-1.579-0.207v0.643c0.184-0.053,0.903-0.216,1.579,0.208
			c0.675,0.425,1.281,0.406,1.433,0.395V12.09L36.259,12.09z M36.259,14.497c-0.151,0.014-0.757,0.031-1.433-0.395
			c-0.676-0.423-1.396-0.258-1.579-0.207v0.645c0.184-0.054,0.903-0.217,1.579,0.207c0.675,0.426,1.281,0.407,1.433,0.395V14.497
			L36.259,14.497z M30.59,9.081c-0.185-0.053-0.903-0.217-1.577,0.207c-0.676,0.427-1.284,0.408-1.435,0.396v0.642
			c0.15,0.014,0.758,0.031,1.435-0.394c0.673-0.423,1.392-0.258,1.577-0.207V9.081L30.59,9.081z M30.59,11.489
			c-0.185-0.053-0.903-0.217-1.577,0.207c-0.676,0.425-1.284,0.405-1.435,0.395v0.644c0.15,0.012,0.758,0.03,1.435-0.395
			c0.673-0.424,1.392-0.26,1.577-0.208V11.489L30.59,11.489z M30.59,13.896c-0.185-0.051-0.903-0.217-1.577,0.207
			c-0.676,0.426-1.284,0.409-1.435,0.395v0.645c0.15,0.012,0.758,0.031,1.435-0.395c0.673-0.423,1.392-0.26,1.577-0.207V13.896
			L30.59,13.896z M34.846,7.581c1.034,0.81,2.524,0.421,2.524,0.421v8.956c0,0-1.49,0.386-2.524-0.423
			c-1.03-0.807-2.902-0.135-2.926,0.828v0.018c0-0.002,0-0.005,0-0.008c0,0.003-0.001,0.006-0.001,0.008v-0.018
			c-0.024-0.963-1.896-1.634-2.925-0.828c-1.036,0.81-2.524,0.423-2.524,0.423V8.002c0,0,1.489,0.388,2.524-0.421
			c1.032-0.812,2.915-0.133,2.926,0.836C31.931,7.448,33.813,6.769,34.846,7.581 M38.289,8.002c0.5,0,0.906,0.404,0.907,0.904v9.847
			h-6.258c-0.144,0.428-0.542,0.738-1.018,0.74h0h-0.001c-0.476-0.002-0.875-0.312-1.017-0.74h-6.26V8.906
			c0.001-0.5,0.407-0.904,0.908-0.904v9.85h5.386c0,0,0.811-0.019,0.983,0.899c0.172-0.918,0.984-0.899,0.984-0.899h5.385V8.002"/>
		<path fill="#EB2227" d="M30.431,60.906h0.241c0.304,0,0.525,0.224,0.525,0.533c0,0.31-0.221,0.534-0.525,0.534h-0.241V60.906
			L30.431,60.906z M30.702,62.393c0.527,0,0.956-0.426,0.956-0.954c0-0.525-0.428-0.952-0.956-0.952h-0.609
			c-0.055,0-0.1,0.048-0.1,0.102v1.703c0,0.054,0.044,0.1,0.1,0.1H30.702 M30.268,63.01c0,0.178,0.143,0.321,0.321,0.321
			c0.178,0,0.321-0.143,0.321-0.321c0-0.177-0.144-0.32-0.321-0.32C30.411,62.69,30.268,62.833,30.268,63.01 M39.882,63.03
			c0.103,0.122,0.365,0.336,0.798,0.336c0.559,0,0.979-0.421,0.979-0.928c0-0.528-0.352-0.897-0.926-0.897h-0.349v-0.539h0.898
			c0.046,0,0.077-0.036,0.077-0.077V60.65c0-0.041-0.031-0.078-0.077-0.078h-1.278c-0.045,0-0.077,0.038-0.077,0.078v1.193
			c0,0.066,0.044,0.143,0.125,0.143h0.624c0.319,0,0.489,0.204,0.489,0.452c0,0.255-0.194,0.479-0.47,0.479
			c-0.271,0-0.505-0.211-0.522-0.228c-0.031-0.027-0.07-0.02-0.098,0.003l-0.202,0.199C39.825,62.942,39.83,62.969,39.882,63.03
			 M38.315,62.318v-0.97l-0.809,0.97H38.315L38.315,62.318z M37.049,62.739c-0.045,0-0.077-0.039-0.077-0.076v-0.336l1.457-1.774
			c0.013-0.01,0.033-0.022,0.061-0.022h0.219c0.04,0,0.077,0.032,0.077,0.077v1.723h0.323c0.044,0,0.077,0.034,0.077,0.075v0.248
			c0,0.041-0.033,0.078-0.077,0.078h-0.323l0.003,0.519c0,0.039-0.037,0.078-0.076,0.078h-0.337c-0.041,0-0.077-0.039-0.077-0.078
			v-0.51H37.049 M34.903,62.582c0,0.223,0.203,0.372,0.422,0.372c0.223,0,0.419-0.149,0.419-0.372c0-0.184-0.148-0.369-0.419-0.429
			C35.053,62.212,34.903,62.398,34.903,62.582 M35.325,61.679c0.25-0.056,0.368-0.21,0.368-0.384c0-0.196-0.166-0.345-0.377-0.345
			c-0.193,0-0.359,0.149-0.359,0.345C34.956,61.477,35.069,61.618,35.325,61.679 M34.365,62.59c0-0.354,0.377-0.62,0.489-0.678
			v-0.01c-0.166-0.088-0.417-0.312-0.417-0.629c0-0.449,0.389-0.739,0.877-0.739c0.507,0,0.896,0.291,0.896,0.739
			c0,0.31-0.251,0.527-0.418,0.624v0.015c0.184,0.095,0.491,0.33,0.491,0.678c0,0.44-0.373,0.775-0.969,0.775
			C34.737,63.365,34.365,63.03,34.365,62.59 M32.93,63.25c0,0.039,0.032,0.076,0.076,0.076h0.349c0.041,0,0.072-0.037,0.072-0.076
			V60.65c0-0.041-0.031-0.078-0.072-0.078h-0.283l-0.584,0.491c-0.016,0.016-0.023,0.041-0.021,0.073l0.025,0.199
			c0.004,0.036,0.045,0.06,0.082,0.053l0.356-0.078V63.25L32.93,63.25z M28.156,63.25c0,0.039,0.037,0.076,0.076,0.076h0.378
			c0.039,0,0.076-0.037,0.076-0.076v-2.271h0.62c0.044,0,0.077-0.037,0.077-0.078v-0.332c0-0.039-0.033-0.075-0.077-0.075h-1.77
			c-0.044,0-0.076,0.036-0.076,0.075V60.9c0,0.041,0.032,0.078,0.076,0.078h0.62V63.25L28.156,63.25z M24.937,63.05
			c0.081,0.078,0.38,0.314,0.891,0.314c0.571,0,0.931-0.384,0.931-0.8c0-0.522-0.453-0.756-0.846-0.915
			c-0.328-0.132-0.478-0.262-0.478-0.452c0-0.129,0.125-0.284,0.356-0.284c0.222,0,0.53,0.202,0.562,0.223
			c0.049,0.031,0.11,0,0.143-0.047l0.154-0.231c0.029-0.041,0.016-0.11-0.024-0.136c-0.081-0.062-0.396-0.269-0.809-0.269
			c-0.644,0-0.911,0.415-0.911,0.775c0,0.478,0.381,0.722,0.762,0.875c0.34,0.138,0.514,0.28,0.514,0.486
			c0,0.173-0.158,0.311-0.369,0.311c-0.263,0-0.59-0.238-0.61-0.251c-0.038-0.027-0.106-0.027-0.14,0.029l-0.145,0.25
			C24.88,62.995,24.901,63.015,24.937,63.05 M22.179,60.569c0-0.039,0.033-0.075,0.077-0.075h1.647c0.044,0,0.077,0.036,0.077,0.075
			V60.9c0,0.041-0.032,0.078-0.077,0.078h-1.197v0.665h0.999c0.041,0,0.078,0.034,0.078,0.077v0.335
			c0,0.044-0.037,0.078-0.078,0.078h-0.999v0.707h1.197c0.044,0,0.077,0.037,0.077,0.078v0.332c0,0.039-0.032,0.076-0.077,0.076
			h-1.647c-0.043,0-0.077-0.037-0.077-0.076V60.569L22.179,60.569z"/>
		<path fill="#EB2227" d="M10.029,34.895c2.439-4.081,4.694-2.869,4.694-2.869C12.094,31.847,10.266,34.525,10.029,34.895
			L10.029,34.895z M17.408,29.261c0-0.469-0.38-0.848-0.848-0.848s-0.848,0.379-0.848,0.848l0.001,4.01c0,0-2.344-0.271-3.657,2.543
			c0,0,0.956-3.017,3.179-3.085c0,0,0.006-7.487,0.006-7.495c0-0.423-0.343-0.765-0.765-0.765c-0.422,0-0.763,0.342-0.763,0.765
			V30.7c0,0,0.508,0.099,0.629,0.134c0,0-0.43-0.036-0.629-0.042c-0.152-0.007-0.303-0.01-0.451-0.007v-6.471
			c0-0.421-0.341-0.763-0.763-0.763c-0.421,0-0.763,0.342-0.763,0.763v6.582c-0.151,0.016-0.294,0.032-0.435,0.048v-5.264
			c0-0.384-0.311-0.695-0.695-0.695s-0.688,0.311-0.688,0.695v5.49c-0.606,0.105-1.032,0.2-1.098,0.221
			c0.219-0.099,0.435-0.187,0.65-0.262v-3.262c0-0.318-0.256-0.574-0.574-0.574c-0.317,0-0.561,0.256-0.561,0.574v6.947
			c0.062,1.594,0.504,4.613,3.094,4.589c0,0-0.636,0.243-1.409-0.129c0,0,0.033,0.146-0.007,0.677
			c-0.042,0.53,0.033,0.984,0.156,1.196h4.646c0,0-0.629-1.577,0.856-3.667c0,0,1.737-2.433,1.737-4.207L17.408,29.261
			L17.408,29.261z"/>
		<path fill="#EB2227" d="M49.019,26.78c0.161-0.293,0.699,0.191,0.699,0.191s-0.095-0.011-0.41,0.194
			C48.927,27.414,48.859,27.069,49.019,26.78L49.019,26.78z M50.37,28.943c0.015,0,1.624,0.154,1.862-1.395
			c0,0,0.09,1.657,1.632,0.779c0,0-0.146,1.686,1.463,0.889c0,0-0.353,1.367,0.892,1.204c0,0,3.123-7.404-5.209-5.718
			c0,0,2.189-1.625,4.629-0.305c0,0-2.161-3.169-6.953-0.386c0,0,1,0.524,0.551,1.476c0,0-0.595,0.437-0.825,0.95
			c-0.229,0.513-0.033,2.033-1.961,2.127c0,0-0.309,0.955,1.002,1.324c0.244,0.069,0.297,0.013,0.897-0.485
			C48.976,28.885,50.354,28.943,50.37,28.943L50.37,28.943z"/>
		<path fill="#EB2227" d="M54.398,32.753c0.164-0.218,0.875-0.865,0.737-1.064c-0.527-0.755-2.234-2.456-3.531-1.89
			c-0.428,0.185-1.072,0.534-1.307,0.632c-0.896,0.377-1.661,0.993-2.063,1.9c-0.854,1.925,0.625,3.65,2.03,4.801
			c0.734,0.602,1.501,1.161,2.229,1.769c0.535,0.449,1.209,1.183,0.95,1.953c-0.234,0.695-1.262,1.185-1.799,0.471
			C51.4,41,51.371,40.449,51.752,40.211c0.399-0.251,0.846,0.167,0.943,0.544c0.068-0.729-0.168-1.583-0.963-1.788
			c-0.752-0.19-1.553,0.289-1.935,0.921c-0.693,1.142-0.281,2.869,0.861,3.566c1.18,0.721,2.861,0.286,3.635-0.833
			c0.487-0.704,0.549-1.628,0.226-2.414c-0.338-0.823-1.078-1.336-1.766-1.856c-0.792-0.592-1.403-1.185-1.992-2.02
			c-0.851-1.203-0.878-2.665-0.672-3.144c-0.234,1.026,0.399,2.066,1.027,2.825c0.724,0.877,1.654,1.537,2.58,2.179
			c0.482,0.336,0.934,0.726,1.204,1.257c-0.066-0.736-0.42-1.411-0.806-2.026c0.315,0.058,0.743,0.14,1.04-0.024
			c0.484-0.265-0.082-0.891-0.303-1.13c0.712-0.09,1.4-0.53,1.652-1.224c0.294-0.809-0.065-1.694-0.438-2.415
			C55.437,35.176,53.406,34.096,54.398,32.753L54.398,32.753z"/>
		<path fill="#EB2227" d="M37.649,47.13v0.923c0,0-0.805-0.241-1.21,0.33c-0.387,0.549-5.463,7.82-5.887,8.425
			c-0.154-0.286-0.292-0.574-0.414-0.858l0.054-6.71c-0.966,0.194-1.921,0.156-2.605-0.306v-1.172c0,0,1.701,1.331,4.816,0.041
			c3.117-1.292,4.138-1.144,4.985-0.665c0,0-1.395-1.12-4.542,0.25c-3.217,1.404-4.89,0.277-5.452-0.216l0.008-1.613
			c0,0,2.092,2.475,5.356,1.144C36.021,45.371,37.649,47.13,37.649,47.13L37.649,47.13z M38.242,49.159
			c0,0.507-0.411,0.918-0.918,0.918c-0.212,0-0.399-0.083-0.554-0.206l-0.18,0.333l0.388,0.251l-3.88,8.475c0,0-0.917,0-0.987,0
			c-0.132-0.085-0.196-0.208-0.29-0.313l4.803-8.886h-0.001l-5.004,8.651c-0.351-0.421-0.651-0.856-0.907-1.293l5.805-8.369
			c0.199-0.294,0.458-0.481,0.808-0.481C37.832,48.24,38.242,48.651,38.242,49.159L38.242,49.159z M29.065,49.732
			c-0.554-0.012-1.064-0.136-1.479-0.415c-0.396,5.177,2.632,7.975,2.632,7.975c-0.213-0.194-0.503-0.299-0.825-0.238
			c-0.412,0.083-0.731,0.434-0.771,0.85c-0.055,0.575,0.394,1.058,0.957,1.058c0.242,0,0.451-0.092,0.626-0.233
			c0.709-0.554,1.393,0.144,1.446,0.199l0,0C27.992,55.103,28.923,50.354,29.065,49.732L29.065,49.732z M35.218,47.259
			c0,0-0.274,0.08-0.708,0.236l0.058,2.253l0.651-0.935V47.259L35.218,47.259z M34.443,47.519c-0.227,0.083-0.494,0.187-0.789,0.313
			l0.08,3.112l0.689-0.991L34.443,47.519L34.443,47.519z M33.593,47.859c-0.25,0.105-0.516,0.228-0.792,0.366l0.1,3.914l0.666-0.953
			L33.593,47.859L33.593,47.859z M32.743,48.253c-0.109,0.058-0.222,0.112-0.334,0.173c-0.148,0.078-0.302,0.155-0.461,0.228
			l0.12,4.684l0.642-0.923L32.743,48.253L32.743,48.253z M31.892,48.678c-0.257,0.119-0.525,0.225-0.801,0.316l0.142,5.541
			l0.62-0.891L31.892,48.678L31.892,48.678z M31.042,49.011c-0.266,0.087-0.537,0.164-0.809,0.218l0.167,6.503l0.596-0.855
			L31.042,49.011L31.042,49.011z"/>
	</g>
</g>
</svg>
